<mxfile host="65bd71144e" pages="2">
    <diagram id="bvu2a87ea8wfOxXEjMIZ" name="Components v.1">
        <mxGraphModel dx="771" dy="226" grid="1" gridSize="10" guides="1" tooltips="1" connect="1" arrows="1" fold="1" page="1" pageScale="1" pageWidth="1654" pageHeight="2336" math="0" shadow="0">
            <root>
                <mxCell id="0"/>
                <mxCell id="1" parent="0"/>
                <mxCell id="YyBgT22ppclSHke5pbse-34" value="" style="rounded=0;whiteSpace=wrap;html=1;strokeColor=#000000;fillColor=none;" parent="1" vertex="1">
                    <mxGeometry x="361" y="1320" width="1239" height="720" as="geometry"/>
                </mxCell>
                <mxCell id="d-LDdMAyfOodjSTyU6Is-46" value="Условные обозначения" style="shape=table;startSize=30;container=1;collapsible=0;childLayout=tableLayout;fontStyle=1;align=center;shadow=0;sketch=0;fontSize=14;strokeWidth=1;fillColor=#f5f5f5;strokeColor=#666666;fontColor=#333333;" parent="1" vertex="1">
                    <mxGeometry x="1010" y="1350" width="560" height="366" as="geometry"/>
                </mxCell>
                <mxCell id="d-LDdMAyfOodjSTyU6Is-47" value="" style="shape=tableRow;horizontal=0;startSize=0;swimlaneHead=0;swimlaneBody=0;top=0;left=0;bottom=0;right=0;collapsible=0;dropTarget=0;fillColor=none;points=[[0,0.5],[1,0.5]];portConstraint=eastwest;shadow=0;sketch=0;fontSize=12;strokeColor=default;strokeWidth=1;" parent="d-LDdMAyfOodjSTyU6Is-46" vertex="1">
                    <mxGeometry y="30" width="560" height="40" as="geometry"/>
                </mxCell>
                <mxCell id="d-LDdMAyfOodjSTyU6Is-48" value="&lt;font style=&quot;font-size: 14px;&quot;&gt;Обозначение&lt;/font&gt;" style="shape=partialRectangle;html=1;whiteSpace=wrap;connectable=0;fillColor=#f5f5f5;top=1;left=1;bottom=1;right=1;overflow=hidden;shadow=0;sketch=0;fontSize=12;strokeColor=#999999;strokeWidth=1;fontColor=#333333;" parent="d-LDdMAyfOodjSTyU6Is-47" vertex="1">
                    <mxGeometry width="280" height="40" as="geometry">
                        <mxRectangle width="280" height="40" as="alternateBounds"/>
                    </mxGeometry>
                </mxCell>
                <mxCell id="d-LDdMAyfOodjSTyU6Is-49" value="&lt;font style=&quot;font-size: 14px;&quot;&gt;Описание&lt;/font&gt;" style="shape=partialRectangle;html=1;whiteSpace=wrap;connectable=0;top=1;left=1;bottom=1;right=1;overflow=hidden;shadow=0;sketch=0;fontSize=12;strokeWidth=1;fillColor=#f5f5f5;fontColor=#333333;strokeColor=#999999;" parent="d-LDdMAyfOodjSTyU6Is-47" vertex="1">
                    <mxGeometry x="280" width="280" height="40" as="geometry">
                        <mxRectangle width="280" height="40" as="alternateBounds"/>
                    </mxGeometry>
                </mxCell>
                <mxCell id="d-LDdMAyfOodjSTyU6Is-51" value="" style="shape=tableRow;horizontal=0;startSize=0;swimlaneHead=0;swimlaneBody=0;top=0;left=0;bottom=0;right=0;collapsible=0;dropTarget=0;fillColor=none;points=[[0,0.5],[1,0.5]];portConstraint=eastwest;shadow=0;sketch=0;fontSize=12;strokeColor=default;strokeWidth=1;" parent="d-LDdMAyfOodjSTyU6Is-46" vertex="1">
                    <mxGeometry y="70" width="560" height="53" as="geometry"/>
                </mxCell>
                <mxCell id="d-LDdMAyfOodjSTyU6Is-52" value="" style="shape=partialRectangle;html=1;whiteSpace=wrap;connectable=0;fillColor=#f5f5f5;top=1;left=1;bottom=1;right=1;overflow=hidden;shadow=0;sketch=0;fontSize=12;strokeColor=#999999;strokeWidth=1;fontColor=#333333;" parent="d-LDdMAyfOodjSTyU6Is-51" vertex="1">
                    <mxGeometry width="280" height="53" as="geometry">
                        <mxRectangle width="280" height="53" as="alternateBounds"/>
                    </mxGeometry>
                </mxCell>
                <mxCell id="d-LDdMAyfOodjSTyU6Is-53" value="&lt;font style=&quot;font-size: 14px;&quot;&gt;Объект &quot;Entity A&quot; строго зависит от объекта &quot;Entity B&quot; (A не работает без B)&lt;/font&gt;" style="shape=partialRectangle;html=1;whiteSpace=wrap;connectable=0;fillColor=#f5f5f5;top=1;left=1;bottom=1;right=1;overflow=hidden;shadow=0;sketch=0;fontSize=12;strokeColor=#999999;strokeWidth=1;fontColor=#333333;" parent="d-LDdMAyfOodjSTyU6Is-51" vertex="1">
                    <mxGeometry x="280" width="280" height="53" as="geometry">
                        <mxRectangle width="280" height="53" as="alternateBounds"/>
                    </mxGeometry>
                </mxCell>
                <mxCell id="icNQKW_zhWbfwGVAJ3iZ-16" style="shape=tableRow;horizontal=0;startSize=0;swimlaneHead=0;swimlaneBody=0;top=0;left=0;bottom=0;right=0;collapsible=0;dropTarget=0;fillColor=none;points=[[0,0.5],[1,0.5]];portConstraint=eastwest;shadow=0;sketch=0;fontSize=12;strokeColor=default;strokeWidth=1;" parent="d-LDdMAyfOodjSTyU6Is-46" vertex="1">
                    <mxGeometry y="123" width="560" height="55" as="geometry"/>
                </mxCell>
                <mxCell id="icNQKW_zhWbfwGVAJ3iZ-17" style="shape=partialRectangle;html=1;whiteSpace=wrap;connectable=0;fillColor=#f5f5f5;top=1;left=1;bottom=1;right=1;overflow=hidden;shadow=0;sketch=0;fontSize=12;strokeColor=#999999;strokeWidth=1;fontColor=#333333;" parent="icNQKW_zhWbfwGVAJ3iZ-16" vertex="1">
                    <mxGeometry width="280" height="55" as="geometry">
                        <mxRectangle width="280" height="55" as="alternateBounds"/>
                    </mxGeometry>
                </mxCell>
                <mxCell id="icNQKW_zhWbfwGVAJ3iZ-18" value="&lt;span style=&quot;font-size: 14px;&quot;&gt;Объект &quot;Entity A&quot;&amp;nbsp; нестрого зависит от объекта &quot;Entity B&quot; (A работает без B)&lt;/span&gt;" style="shape=partialRectangle;html=1;whiteSpace=wrap;connectable=0;fillColor=#f5f5f5;top=1;left=1;bottom=1;right=1;overflow=hidden;shadow=0;sketch=0;fontSize=12;strokeColor=#999999;strokeWidth=1;fontColor=#333333;" parent="icNQKW_zhWbfwGVAJ3iZ-16" vertex="1">
                    <mxGeometry x="280" width="280" height="55" as="geometry">
                        <mxRectangle width="280" height="55" as="alternateBounds"/>
                    </mxGeometry>
                </mxCell>
                <mxCell id="d-LDdMAyfOodjSTyU6Is-63" style="shape=tableRow;horizontal=0;startSize=0;swimlaneHead=0;swimlaneBody=0;top=0;left=0;bottom=0;right=0;collapsible=0;dropTarget=0;fillColor=none;points=[[0,0.5],[1,0.5]];portConstraint=eastwest;shadow=0;sketch=0;fontSize=12;strokeColor=default;strokeWidth=1;" parent="d-LDdMAyfOodjSTyU6Is-46" vertex="1">
                    <mxGeometry y="178" width="560" height="94" as="geometry"/>
                </mxCell>
                <mxCell id="d-LDdMAyfOodjSTyU6Is-64" style="shape=partialRectangle;html=1;whiteSpace=wrap;connectable=0;fillColor=#f5f5f5;top=1;left=1;bottom=1;right=1;overflow=hidden;shadow=0;sketch=0;fontSize=12;strokeColor=#999999;strokeWidth=1;fontColor=#333333;" parent="d-LDdMAyfOodjSTyU6Is-63" vertex="1">
                    <mxGeometry width="280" height="94" as="geometry">
                        <mxRectangle width="280" height="94" as="alternateBounds"/>
                    </mxGeometry>
                </mxCell>
                <mxCell id="d-LDdMAyfOodjSTyU6Is-65" value="&lt;span style=&quot;font-size: 14px;&quot;&gt;Объект &quot;Entity A&quot; зависит от объектов &quot;Entity B&quot; и &quot;Entity C&quot;&lt;/span&gt;" style="shape=partialRectangle;html=1;whiteSpace=wrap;connectable=0;fillColor=#f5f5f5;top=1;left=1;bottom=1;right=1;overflow=hidden;shadow=0;sketch=0;fontSize=12;strokeColor=#999999;strokeWidth=1;fontColor=#333333;" parent="d-LDdMAyfOodjSTyU6Is-63" vertex="1">
                    <mxGeometry x="280" width="280" height="94" as="geometry">
                        <mxRectangle width="280" height="94" as="alternateBounds"/>
                    </mxGeometry>
                </mxCell>
                <mxCell id="YyBgT22ppclSHke5pbse-40" style="shape=tableRow;horizontal=0;startSize=0;swimlaneHead=0;swimlaneBody=0;top=0;left=0;bottom=0;right=0;collapsible=0;dropTarget=0;fillColor=none;points=[[0,0.5],[1,0.5]];portConstraint=eastwest;shadow=0;sketch=0;fontSize=12;strokeColor=default;strokeWidth=1;" parent="d-LDdMAyfOodjSTyU6Is-46" vertex="1">
                    <mxGeometry y="272" width="560" height="94" as="geometry"/>
                </mxCell>
                <mxCell id="YyBgT22ppclSHke5pbse-41" style="shape=partialRectangle;html=1;whiteSpace=wrap;connectable=0;fillColor=#f5f5f5;top=1;left=1;bottom=1;right=1;overflow=hidden;shadow=0;sketch=0;fontSize=12;strokeColor=#999999;strokeWidth=1;fontColor=#333333;" parent="YyBgT22ppclSHke5pbse-40" vertex="1">
                    <mxGeometry width="280" height="94" as="geometry">
                        <mxRectangle width="280" height="94" as="alternateBounds"/>
                    </mxGeometry>
                </mxCell>
                <mxCell id="YyBgT22ppclSHke5pbse-42" value="&lt;span style=&quot;font-size: 14px;&quot;&gt;Объекты&amp;nbsp;&lt;/span&gt;&lt;span style=&quot;font-size: 14px;&quot;&gt;&quot;Entity B&quot; и &quot;Entity C&quot;&lt;/span&gt;&lt;span style=&quot;font-size: 14px;&quot;&gt;&lt;br&gt;&amp;nbsp;зависят от объекта&amp;nbsp;&lt;/span&gt;&lt;span style=&quot;font-size: 14px;&quot;&gt;&quot;Entity A&quot;&lt;/span&gt;" style="shape=partialRectangle;html=1;whiteSpace=wrap;connectable=0;fillColor=#f5f5f5;top=1;left=1;bottom=1;right=1;overflow=hidden;shadow=0;sketch=0;fontSize=12;strokeColor=#999999;strokeWidth=1;fontColor=#333333;" parent="YyBgT22ppclSHke5pbse-40" vertex="1">
                    <mxGeometry x="280" width="280" height="94" as="geometry">
                        <mxRectangle width="280" height="94" as="alternateBounds"/>
                    </mxGeometry>
                </mxCell>
                <mxCell id="YyBgT22ppclSHke5pbse-55" style="edgeStyle=orthogonalEdgeStyle;rounded=0;orthogonalLoop=1;jettySize=auto;html=1;fontSize=20;" parent="1" source="YyBgT22ppclSHke5pbse-38" target="YyBgT22ppclSHke5pbse-36" edge="1">
                    <mxGeometry relative="1" as="geometry">
                        <Array as="points">
                            <mxPoint x="700" y="1460"/>
                            <mxPoint x="700" y="1460"/>
                        </Array>
                    </mxGeometry>
                </mxCell>
                <mxCell id="YyBgT22ppclSHke5pbse-38" value="" style="rounded=0;whiteSpace=wrap;html=1;fontSize=20;strokeColor=default;fillColor=#E6E6E6;" parent="1" vertex="1">
                    <mxGeometry x="380" y="1460" width="590" height="560" as="geometry"/>
                </mxCell>
                <mxCell id="d-LDdMAyfOodjSTyU6Is-84" value="" style="rounded=0;whiteSpace=wrap;html=1;shadow=0;glass=0;sketch=0;fontSize=12;strokeColor=default;strokeWidth=1;fillColor=default;snapToPoint=1;" parent="1" vertex="1">
                    <mxGeometry x="395" y="1480" width="560" height="420" as="geometry"/>
                </mxCell>
                <mxCell id="YyBgT22ppclSHke5pbse-53" style="edgeStyle=orthogonalEdgeStyle;rounded=0;orthogonalLoop=1;jettySize=auto;html=1;fontSize=20;" parent="1" source="YyBgT22ppclSHke5pbse-51" target="d-LDdMAyfOodjSTyU6Is-36" edge="1">
                    <mxGeometry relative="1" as="geometry"/>
                </mxCell>
                <mxCell id="YyBgT22ppclSHke5pbse-54" style="edgeStyle=orthogonalEdgeStyle;rounded=0;orthogonalLoop=1;jettySize=auto;html=1;fontSize=20;dashed=1;" parent="1" source="YyBgT22ppclSHke5pbse-51" target="d-LDdMAyfOodjSTyU6Is-37" edge="1">
                    <mxGeometry relative="1" as="geometry">
                        <Array as="points">
                            <mxPoint x="780" y="1590"/>
                            <mxPoint x="780" y="1590"/>
                        </Array>
                    </mxGeometry>
                </mxCell>
                <mxCell id="YyBgT22ppclSHke5pbse-51" value="" style="rounded=0;whiteSpace=wrap;html=1;fontSize=20;strokeColor=default;fillColor=#E6E6E6;" parent="1" vertex="1">
                    <mxGeometry x="615" y="1602.5" width="325" height="277.5" as="geometry"/>
                </mxCell>
                <mxCell id="m5T3a47cuJNmgM7cxo_w-3" value="Перечень компонентов экосистемы" style="shape=table;startSize=30;container=1;collapsible=0;childLayout=tableLayout;fontStyle=1;align=center;verticalAlign=top;strokeColor=default;swimlaneLine=1;shadow=0;fillColor=default;" parent="1" vertex="1">
                    <mxGeometry x="361" y="80" width="1239" height="729.79" as="geometry"/>
                </mxCell>
                <mxCell id="m5T3a47cuJNmgM7cxo_w-4" value="" style="shape=tableRow;horizontal=0;startSize=0;swimlaneHead=0;swimlaneBody=0;top=0;left=0;bottom=0;right=0;collapsible=0;dropTarget=0;fillColor=none;points=[[0,0.5],[1,0.5]];portConstraint=eastwest;" parent="m5T3a47cuJNmgM7cxo_w-3" vertex="1">
                    <mxGeometry y="30" width="1239" height="44" as="geometry"/>
                </mxCell>
                <mxCell id="m5T3a47cuJNmgM7cxo_w-5" value="Имя" style="shape=partialRectangle;html=1;whiteSpace=wrap;connectable=0;fillColor=none;top=0;left=0;bottom=0;right=0;overflow=hidden;" parent="m5T3a47cuJNmgM7cxo_w-4" vertex="1">
                    <mxGeometry width="129" height="44" as="geometry">
                        <mxRectangle width="129" height="44" as="alternateBounds"/>
                    </mxGeometry>
                </mxCell>
                <mxCell id="m5T3a47cuJNmgM7cxo_w-6" value="Назначение" style="shape=partialRectangle;html=1;whiteSpace=wrap;connectable=0;fillColor=none;top=0;left=0;bottom=0;right=0;overflow=hidden;" parent="m5T3a47cuJNmgM7cxo_w-4" vertex="1">
                    <mxGeometry x="129" width="460" height="44" as="geometry">
                        <mxRectangle width="460" height="44" as="alternateBounds"/>
                    </mxGeometry>
                </mxCell>
                <mxCell id="d-LDdMAyfOodjSTyU6Is-119" value="Слабые места и вопросы к реализации" style="shape=partialRectangle;html=1;whiteSpace=wrap;connectable=0;fillColor=none;top=0;left=0;bottom=0;right=0;overflow=hidden;" parent="m5T3a47cuJNmgM7cxo_w-4" vertex="1">
                    <mxGeometry x="589" width="650" height="44" as="geometry">
                        <mxRectangle width="650" height="44" as="alternateBounds"/>
                    </mxGeometry>
                </mxCell>
                <mxCell id="m5T3a47cuJNmgM7cxo_w-8" value="" style="shape=tableRow;horizontal=0;startSize=0;swimlaneHead=0;swimlaneBody=0;top=0;left=0;bottom=0;right=0;collapsible=0;dropTarget=0;fillColor=none;points=[[0,0.5],[1,0.5]];portConstraint=eastwest;" parent="m5T3a47cuJNmgM7cxo_w-3" vertex="1">
                    <mxGeometry y="74" width="1239" height="73" as="geometry"/>
                </mxCell>
                <mxCell id="m5T3a47cuJNmgM7cxo_w-9" value="Безопасность" style="shape=partialRectangle;html=1;whiteSpace=wrap;connectable=0;fillColor=none;top=0;left=0;bottom=0;right=0;overflow=hidden;" parent="m5T3a47cuJNmgM7cxo_w-8" vertex="1">
                    <mxGeometry width="129" height="73" as="geometry">
                        <mxRectangle width="129" height="73" as="alternateBounds"/>
                    </mxGeometry>
                </mxCell>
                <mxCell id="m5T3a47cuJNmgM7cxo_w-10" value="Защита данных и вычислительных мощностей&amp;nbsp;экосистемы от несанкионированного доступа. Управление доступом к данным об устройствах, пользователях, а также данных с аппаратного обеспечения устройств. Управление безопасностью сетевых подключений.&amp;nbsp;" style="shape=partialRectangle;html=1;whiteSpace=wrap;connectable=0;fillColor=none;top=0;left=0;bottom=0;right=0;overflow=hidden;align=left;spacingLeft=6;verticalAlign=top;spacingTop=0;" parent="m5T3a47cuJNmgM7cxo_w-8" vertex="1">
                    <mxGeometry x="129" width="460" height="73" as="geometry">
                        <mxRectangle width="460" height="73" as="alternateBounds"/>
                    </mxGeometry>
                </mxCell>
                <mxCell id="d-LDdMAyfOodjSTyU6Is-120" style="shape=partialRectangle;html=1;whiteSpace=wrap;connectable=0;fillColor=none;top=0;left=0;bottom=0;right=0;overflow=hidden;align=left;spacingLeft=6;verticalAlign=top;spacingTop=0;" parent="m5T3a47cuJNmgM7cxo_w-8" vertex="1">
                    <mxGeometry x="589" width="650" height="73" as="geometry">
                        <mxRectangle width="650" height="73" as="alternateBounds"/>
                    </mxGeometry>
                </mxCell>
                <mxCell id="m5T3a47cuJNmgM7cxo_w-12" value="" style="shape=tableRow;horizontal=0;startSize=0;swimlaneHead=0;swimlaneBody=0;top=0;left=0;bottom=0;right=0;collapsible=0;dropTarget=0;fillColor=none;points=[[0,0.5],[1,0.5]];portConstraint=eastwest;verticalAlign=middle;" parent="m5T3a47cuJNmgM7cxo_w-3" vertex="1">
                    <mxGeometry y="147" width="1239" height="77" as="geometry"/>
                </mxCell>
                <mxCell id="m5T3a47cuJNmgM7cxo_w-13" value="Статистика" style="shape=partialRectangle;html=1;whiteSpace=wrap;connectable=0;fillColor=none;top=0;left=0;bottom=0;right=0;overflow=hidden;" parent="m5T3a47cuJNmgM7cxo_w-12" vertex="1">
                    <mxGeometry width="129" height="77" as="geometry">
                        <mxRectangle width="129" height="77" as="alternateBounds"/>
                    </mxGeometry>
                </mxCell>
                <mxCell id="m5T3a47cuJNmgM7cxo_w-14" value="Ведение и обработка статистики за устройствами и пользователями. Анализ полученных данных для различных целей. Предоставление интерфейса для анализа, экспорта и импорта статистики сторонними модулями или программными инструментами экосистемы." style="shape=partialRectangle;html=1;whiteSpace=wrap;connectable=0;fillColor=none;top=0;left=0;bottom=0;right=0;overflow=hidden;align=left;spacingLeft=6;verticalAlign=top;" parent="m5T3a47cuJNmgM7cxo_w-12" vertex="1">
                    <mxGeometry x="129" width="460" height="77" as="geometry">
                        <mxRectangle width="460" height="77" as="alternateBounds"/>
                    </mxGeometry>
                </mxCell>
                <mxCell id="d-LDdMAyfOodjSTyU6Is-121" style="shape=partialRectangle;html=1;whiteSpace=wrap;connectable=0;fillColor=none;top=0;left=0;bottom=0;right=0;overflow=hidden;align=left;spacingLeft=6;verticalAlign=top;" parent="m5T3a47cuJNmgM7cxo_w-12" vertex="1">
                    <mxGeometry x="589" width="650" height="77" as="geometry">
                        <mxRectangle width="650" height="77" as="alternateBounds"/>
                    </mxGeometry>
                </mxCell>
                <mxCell id="m5T3a47cuJNmgM7cxo_w-20" style="shape=tableRow;horizontal=0;startSize=0;swimlaneHead=0;swimlaneBody=0;top=0;left=0;bottom=0;right=0;collapsible=0;dropTarget=0;fillColor=none;points=[[0,0.5],[1,0.5]];portConstraint=eastwest;" parent="m5T3a47cuJNmgM7cxo_w-3" vertex="1">
                    <mxGeometry y="224" width="1239" height="76" as="geometry"/>
                </mxCell>
                <mxCell id="m5T3a47cuJNmgM7cxo_w-21" value="Хранение данных" style="shape=partialRectangle;html=1;whiteSpace=wrap;connectable=0;fillColor=none;top=0;left=0;bottom=0;right=0;overflow=hidden;" parent="m5T3a47cuJNmgM7cxo_w-20" vertex="1">
                    <mxGeometry width="129" height="76" as="geometry">
                        <mxRectangle width="129" height="76" as="alternateBounds"/>
                    </mxGeometry>
                </mxCell>
                <mxCell id="m5T3a47cuJNmgM7cxo_w-22" value="Хранение данных экосистемы, управление и гибкое применение технологий повышения надежности хранения данных (RAID и пр.). Ведение резервных копий данных экосистемы. Оптимизация скорости доступа к данным" style="shape=partialRectangle;html=1;whiteSpace=wrap;connectable=0;fillColor=none;top=0;left=0;bottom=0;right=0;overflow=hidden;align=left;spacingLeft=6;verticalAlign=top;" parent="m5T3a47cuJNmgM7cxo_w-20" vertex="1">
                    <mxGeometry x="129" width="460" height="76" as="geometry">
                        <mxRectangle width="460" height="76" as="alternateBounds"/>
                    </mxGeometry>
                </mxCell>
                <mxCell id="d-LDdMAyfOodjSTyU6Is-122" style="shape=partialRectangle;html=1;whiteSpace=wrap;connectable=0;fillColor=none;top=0;left=0;bottom=0;right=0;overflow=hidden;align=left;spacingLeft=6;verticalAlign=top;" parent="m5T3a47cuJNmgM7cxo_w-20" vertex="1">
                    <mxGeometry x="589" width="650" height="76" as="geometry">
                        <mxRectangle width="650" height="76" as="alternateBounds"/>
                    </mxGeometry>
                </mxCell>
                <mxCell id="m5T3a47cuJNmgM7cxo_w-17" style="shape=tableRow;horizontal=0;startSize=0;swimlaneHead=0;swimlaneBody=0;top=0;left=0;bottom=0;right=0;collapsible=0;dropTarget=0;fillColor=none;points=[[0,0.5],[1,0.5]];portConstraint=eastwest;" parent="m5T3a47cuJNmgM7cxo_w-3" vertex="1">
                    <mxGeometry y="300" width="1239" height="78" as="geometry"/>
                </mxCell>
                <mxCell id="m5T3a47cuJNmgM7cxo_w-18" value="Поддержка аппаратного обеспечения (АО) устройств" style="shape=partialRectangle;html=1;whiteSpace=wrap;connectable=0;fillColor=none;top=0;left=0;bottom=0;right=0;overflow=hidden;" parent="m5T3a47cuJNmgM7cxo_w-17" vertex="1">
                    <mxGeometry width="129" height="78" as="geometry">
                        <mxRectangle width="129" height="78" as="alternateBounds"/>
                    </mxGeometry>
                </mxCell>
                <mxCell id="m5T3a47cuJNmgM7cxo_w-19" value="Предоставление остальным компонентам экосистемы интерфейс взаимодействия с АО устройств. Управление и конфигурация драйверов устройств. Обеспечение целостности АО экосистемы (прозрачное* переключение на резервное АО в т.ч.). Управление сетевыми подключениями уровня клиент-сервер" style="shape=partialRectangle;html=1;whiteSpace=wrap;connectable=0;fillColor=none;top=0;left=0;bottom=0;right=0;overflow=hidden;align=left;spacingLeft=6;verticalAlign=top;spacingRight=2;" parent="m5T3a47cuJNmgM7cxo_w-17" vertex="1">
                    <mxGeometry x="129" width="460" height="78" as="geometry">
                        <mxRectangle width="460" height="78" as="alternateBounds"/>
                    </mxGeometry>
                </mxCell>
                <mxCell id="d-LDdMAyfOodjSTyU6Is-123" value="Невозможность полного восстановления контекста приложений при аварии т.к шины данных на сервере работают значительно быстрее сетевых карт.&lt;br&gt;&lt;br&gt;Нужно ли этому компоненту управлять сетевыми подключениями или лучше назначить другому?" style="shape=partialRectangle;html=1;whiteSpace=wrap;connectable=0;fillColor=none;top=0;left=0;bottom=0;right=0;overflow=hidden;align=left;spacingLeft=6;verticalAlign=top;spacingRight=2;" parent="m5T3a47cuJNmgM7cxo_w-17" vertex="1">
                    <mxGeometry x="589" width="650" height="78" as="geometry">
                        <mxRectangle width="650" height="78" as="alternateBounds"/>
                    </mxGeometry>
                </mxCell>
                <mxCell id="m5T3a47cuJNmgM7cxo_w-23" style="shape=tableRow;horizontal=0;startSize=0;swimlaneHead=0;swimlaneBody=0;top=0;left=0;bottom=0;right=0;collapsible=0;dropTarget=0;fillColor=none;points=[[0,0.5],[1,0.5]];portConstraint=eastwest;" parent="m5T3a47cuJNmgM7cxo_w-3" vertex="1">
                    <mxGeometry y="378" width="1239" height="84" as="geometry"/>
                </mxCell>
                <mxCell id="m5T3a47cuJNmgM7cxo_w-24" value="&lt;span style=&quot;font-weight: normal&quot;&gt;Распределение вычислительных ресурсов&lt;/span&gt;" style="shape=partialRectangle;html=1;whiteSpace=wrap;connectable=0;fillColor=none;top=0;left=0;bottom=0;right=0;overflow=hidden;fontStyle=1" parent="m5T3a47cuJNmgM7cxo_w-23" vertex="1">
                    <mxGeometry width="129" height="84" as="geometry">
                        <mxRectangle width="129" height="84" as="alternateBounds"/>
                    </mxGeometry>
                </mxCell>
                <mxCell id="m5T3a47cuJNmgM7cxo_w-25" value="Организация переноса приложений или их частей между устройствами. Гибкое управление эноргопотреблением устройств (преимущественно переносных). Приоритезация и распределение имеющихся вычислительных ресурсов под задачи клиентов или серверов**" style="shape=partialRectangle;html=1;whiteSpace=wrap;connectable=0;fillColor=none;top=0;left=0;bottom=0;right=0;overflow=hidden;align=left;spacingLeft=6;verticalAlign=top;" parent="m5T3a47cuJNmgM7cxo_w-23" vertex="1">
                    <mxGeometry x="129" width="460" height="84" as="geometry">
                        <mxRectangle width="460" height="84" as="alternateBounds"/>
                    </mxGeometry>
                </mxCell>
                <mxCell id="d-LDdMAyfOodjSTyU6Is-124" value="Распределение одной работающей программы по разным устройствам проблематично из-за низкой скорости передачи данных сетевых карт. Можно объединить приложения на основе динамических библиотек (т.е не делить приложение, а просто отправлять целиком если требуется). Для тонкого клиента маршрутизация приложеий очень тяжела потому как требуется шлюз который будет собирать всю картинку воедино и отправлять на тонкий клиент. А это значит, что придется ждать все серверы." style="shape=partialRectangle;html=1;whiteSpace=wrap;connectable=0;fillColor=none;top=0;left=0;bottom=0;right=0;overflow=visible;align=left;spacingLeft=6;verticalAlign=top;" parent="m5T3a47cuJNmgM7cxo_w-23" vertex="1">
                    <mxGeometry x="589" width="650" height="84" as="geometry">
                        <mxRectangle width="650" height="84" as="alternateBounds"/>
                    </mxGeometry>
                </mxCell>
                <mxCell id="m5T3a47cuJNmgM7cxo_w-31" style="shape=tableRow;horizontal=0;startSize=0;swimlaneHead=0;swimlaneBody=0;top=0;left=0;bottom=0;right=0;collapsible=0;dropTarget=0;fillColor=none;points=[[0,0.5],[1,0.5]];portConstraint=eastwest;" parent="m5T3a47cuJNmgM7cxo_w-3" vertex="1">
                    <mxGeometry y="462" width="1239" height="148" as="geometry"/>
                </mxCell>
                <mxCell id="m5T3a47cuJNmgM7cxo_w-32" value="Управление пользовательской средой" style="shape=partialRectangle;html=1;whiteSpace=wrap;connectable=0;fillColor=none;top=0;left=0;bottom=0;right=0;overflow=hidden;" parent="m5T3a47cuJNmgM7cxo_w-31" vertex="1">
                    <mxGeometry width="129" height="148" as="geometry">
                        <mxRectangle width="129" height="148" as="alternateBounds"/>
                    </mxGeometry>
                </mxCell>
                <mxCell id="m5T3a47cuJNmgM7cxo_w-33" value="Организация бесшовной среды для пользвателя:&lt;br&gt;&lt;ul&gt;&lt;li&gt;Прозрачное переключение устройств ввода-вывода на уровне приложений&lt;/li&gt;&lt;li&gt;Трансляция приложений и пользовательского интерфейса ОС клиентам.&lt;/li&gt;&lt;li&gt;&quot;Умное&quot; использование доступного для устройств АО (поддержка совместного применения всего АО, доступного устройствам экосистемы)&lt;/li&gt;&lt;/ul&gt;" style="shape=partialRectangle;html=1;whiteSpace=wrap;connectable=0;fillColor=none;top=0;left=0;bottom=0;right=0;overflow=hidden;align=left;spacingLeft=6;verticalAlign=top;strokeColor=default;shadow=0;" parent="m5T3a47cuJNmgM7cxo_w-31" vertex="1">
                    <mxGeometry x="129" width="460" height="148" as="geometry">
                        <mxRectangle width="460" height="148" as="alternateBounds"/>
                    </mxGeometry>
                </mxCell>
                <mxCell id="d-LDdMAyfOodjSTyU6Is-125" style="shape=partialRectangle;html=1;connectable=0;fillColor=none;top=0;left=0;bottom=0;right=0;overflow=hidden;align=left;spacingLeft=6;verticalAlign=top;strokeColor=default;shadow=0;whiteSpace=wrap;" parent="m5T3a47cuJNmgM7cxo_w-31" vertex="1">
                    <mxGeometry x="589" width="650" height="148" as="geometry">
                        <mxRectangle width="650" height="148" as="alternateBounds"/>
                    </mxGeometry>
                </mxCell>
                <mxCell id="d-LDdMAyfOodjSTyU6Is-31" style="shape=tableRow;horizontal=0;startSize=0;swimlaneHead=0;swimlaneBody=0;top=0;left=0;bottom=0;right=0;collapsible=0;dropTarget=0;fillColor=none;points=[[0,0.5],[1,0.5]];portConstraint=eastwest;" parent="m5T3a47cuJNmgM7cxo_w-3" vertex="1">
                    <mxGeometry y="610" width="1239" height="70" as="geometry"/>
                </mxCell>
                <mxCell id="d-LDdMAyfOodjSTyU6Is-32" value="Регистрация объектов" style="shape=partialRectangle;html=1;whiteSpace=wrap;connectable=0;fillColor=none;top=0;left=0;bottom=0;right=0;overflow=hidden;" parent="d-LDdMAyfOodjSTyU6Is-31" vertex="1">
                    <mxGeometry width="129" height="70" as="geometry">
                        <mxRectangle width="129" height="70" as="alternateBounds"/>
                    </mxGeometry>
                </mxCell>
                <mxCell id="d-LDdMAyfOodjSTyU6Is-33" value="Организация процесса регистрации и устройств, пользователей в экосистеме. Организация процесса модификации и удаления данных об устройствах и пользователях экосистемы. Организация авторизации устройств и пользователей." style="shape=partialRectangle;html=1;whiteSpace=wrap;connectable=0;fillColor=none;top=0;left=0;bottom=0;right=0;overflow=hidden;align=left;spacingLeft=6;verticalAlign=top;strokeColor=default;shadow=0;" parent="d-LDdMAyfOodjSTyU6Is-31" vertex="1">
                    <mxGeometry x="129" width="460" height="70" as="geometry">
                        <mxRectangle width="460" height="70" as="alternateBounds"/>
                    </mxGeometry>
                </mxCell>
                <mxCell id="d-LDdMAyfOodjSTyU6Is-126" style="shape=partialRectangle;html=1;whiteSpace=wrap;connectable=0;fillColor=none;top=0;left=0;bottom=0;right=0;overflow=hidden;align=left;spacingLeft=6;verticalAlign=top;strokeColor=default;shadow=0;" parent="d-LDdMAyfOodjSTyU6Is-31" vertex="1">
                    <mxGeometry x="589" width="650" height="70" as="geometry">
                        <mxRectangle width="650" height="70" as="alternateBounds"/>
                    </mxGeometry>
                </mxCell>
                <mxCell id="d-LDdMAyfOodjSTyU6Is-2" style="shape=tableRow;horizontal=0;startSize=0;swimlaneHead=0;swimlaneBody=0;top=0;left=0;bottom=0;right=0;collapsible=0;dropTarget=0;fillColor=none;points=[[0,0.5],[1,0.5]];portConstraint=eastwest;verticalAlign=top;" parent="m5T3a47cuJNmgM7cxo_w-3" vertex="1">
                    <mxGeometry y="680" width="1239" height="50" as="geometry"/>
                </mxCell>
                <mxCell id="d-LDdMAyfOodjSTyU6Is-3" value="&lt;span style=&quot;font-size: 11px; background-color: initial;&quot;&gt;*&amp;nbsp;- Под прозрачностью имеется ввиду незаметность&amp;nbsp;&lt;/span&gt;&lt;span style=&quot;font-size: 11px; background-color: initial;&quot;&gt;переключения на другое АО для потребителей.&lt;br&gt;&lt;div style=&quot;&quot;&gt;&lt;span style=&quot;background-color: initial;&quot;&gt;**&lt;/span&gt;&lt;span style=&quot;background-color: initial;&quot;&gt;- В случае, если серверная сторона состоит из нескольких устройств&lt;/span&gt;&lt;/div&gt;&lt;/span&gt;" style="shape=partialRectangle;html=1;whiteSpace=wrap;connectable=0;top=0;left=0;bottom=0;right=0;overflow=hidden;verticalAlign=top;shadow=0;sketch=0;fillColor=none;rowspan=1;colspan=3;align=left;spacingLeft=10;" parent="d-LDdMAyfOodjSTyU6Is-2" vertex="1">
                    <mxGeometry width="1239" height="50" as="geometry">
                        <mxRectangle width="129" height="50" as="alternateBounds"/>
                    </mxGeometry>
                </mxCell>
                <mxCell id="d-LDdMAyfOodjSTyU6Is-4" style="shape=partialRectangle;html=1;whiteSpace=wrap;connectable=0;fillColor=none;top=0;left=0;bottom=0;right=0;overflow=hidden;align=left;spacingLeft=6;verticalAlign=top;strokeColor=default;shadow=0;" parent="d-LDdMAyfOodjSTyU6Is-2" vertex="1" visible="0">
                    <mxGeometry x="129" width="460" height="50" as="geometry">
                        <mxRectangle width="460" height="50" as="alternateBounds"/>
                    </mxGeometry>
                </mxCell>
                <mxCell id="d-LDdMAyfOodjSTyU6Is-127" style="shape=partialRectangle;html=1;whiteSpace=wrap;connectable=0;fillColor=none;top=0;left=0;bottom=0;right=0;overflow=hidden;align=left;spacingLeft=6;verticalAlign=top;strokeColor=default;shadow=0;" parent="d-LDdMAyfOodjSTyU6Is-2" vertex="1" visible="0">
                    <mxGeometry x="589" width="650" height="50" as="geometry">
                        <mxRectangle width="650" height="50" as="alternateBounds"/>
                    </mxGeometry>
                </mxCell>
                <mxCell id="m5T3a47cuJNmgM7cxo_w-16" value="&lt;h1&gt;Компонент экосистемы&lt;/h1&gt;&lt;div&gt;&lt;font style=&quot;font-size: 14px;&quot;&gt;Определение - структурная единица экосистемы. Отвечает за поддержку одной из ее функций. Состоит из 2 обязательных частей: серверной и клиентской.&lt;/font&gt;&lt;/div&gt;&lt;div&gt;&lt;font style=&quot;font-size: 14px;&quot;&gt;&lt;br&gt;&lt;/font&gt;&lt;/div&gt;&lt;div&gt;&lt;font style=&quot;font-size: 14px;&quot;&gt;В одно и то же время могут быть запущены различные модификации одного и того же компонента для обслуживания специфических типов устройств. Так, одновременно могут работать версия компонента, поддерживающая работу с эмулируемым клиентом с выводом отладочных сообщений, так и обычная версия для физических, полноценных клиентов&lt;/font&gt;&lt;/div&gt;&lt;div&gt;&lt;font style=&quot;font-size: 14px;&quot;&gt;&lt;br&gt;&lt;/font&gt;&lt;/div&gt;&lt;div&gt;&lt;font style=&quot;font-size: 14px;&quot;&gt;&lt;br&gt;&lt;/font&gt;&lt;/div&gt;&lt;div&gt;&lt;font style=&quot;font-size: 14px;&quot;&gt;Объект экосистемы 1 уровня.&lt;/font&gt;&lt;/div&gt;" style="text;html=1;strokeColor=none;fillColor=none;spacing=5;spacingTop=-20;whiteSpace=wrap;overflow=hidden;rounded=0;autosize=0;resizeWidth=0;resizeHeight=0;" parent="1" vertex="1">
                    <mxGeometry x="40" y="70" width="290" height="420" as="geometry"/>
                </mxCell>
                <mxCell id="d-LDdMAyfOodjSTyU6Is-1" value="&lt;h1&gt;&lt;b&gt;&lt;font style=&quot;font-size: 28px;&quot;&gt;Variant I&lt;/font&gt;&lt;/b&gt;&lt;/h1&gt;" style="text;html=1;strokeColor=none;fillColor=none;align=left;verticalAlign=middle;whiteSpace=wrap;rounded=0;spacing=5;fontStyle=2" parent="1" vertex="1">
                    <mxGeometry x="40" y="40" width="130" height="30" as="geometry"/>
                </mxCell>
                <mxCell id="d-LDdMAyfOodjSTyU6Is-5" value="&lt;h1&gt;Программные инстру- -менты экосистемы&lt;/h1&gt;&lt;div style=&quot;font-size: 14px&quot;&gt;&lt;font style=&quot;font-size: 14px&quot;&gt;Определение: программное обеспечение экосистемы, расширяющее возможности взаимодействия экосистемы и пользователя или позволяющее управлять существующими. Пользователями данного ПО могут быть разработчики, администраторы экосистемы.&lt;/font&gt;&lt;/div&gt;&lt;div style=&quot;font-size: 14px&quot;&gt;&lt;font style=&quot;font-size: 14px&quot;&gt;Объект экосистемы 1 уровня.&lt;/font&gt;&lt;br&gt;&lt;/div&gt;" style="text;html=1;strokeColor=none;fillColor=none;spacing=5;spacingTop=-20;whiteSpace=wrap;overflow=hidden;rounded=0;" parent="1" vertex="1">
                    <mxGeometry x="40" y="840" width="310" height="250" as="geometry"/>
                </mxCell>
                <mxCell id="d-LDdMAyfOodjSTyU6Is-6" value="Перечень программных инструментов экосистемы" style="shape=table;startSize=30;container=1;collapsible=0;childLayout=tableLayout;fontStyle=1;align=center;verticalAlign=top;strokeColor=default;swimlaneLine=1;shadow=0;fillColor=default;" parent="1" vertex="1">
                    <mxGeometry x="361" y="840" width="559" height="440" as="geometry"/>
                </mxCell>
                <mxCell id="d-LDdMAyfOodjSTyU6Is-7" value="" style="shape=tableRow;horizontal=0;startSize=0;swimlaneHead=0;swimlaneBody=0;top=0;left=0;bottom=0;right=0;collapsible=0;dropTarget=0;fillColor=none;points=[[0,0.5],[1,0.5]];portConstraint=eastwest;" parent="d-LDdMAyfOodjSTyU6Is-6" vertex="1">
                    <mxGeometry y="30" width="559" height="47" as="geometry"/>
                </mxCell>
                <mxCell id="d-LDdMAyfOodjSTyU6Is-8" value="Имя" style="shape=partialRectangle;html=1;whiteSpace=wrap;connectable=0;fillColor=none;top=0;left=0;bottom=0;right=0;overflow=hidden;" parent="d-LDdMAyfOodjSTyU6Is-7" vertex="1">
                    <mxGeometry width="126" height="47" as="geometry">
                        <mxRectangle width="126" height="47" as="alternateBounds"/>
                    </mxGeometry>
                </mxCell>
                <mxCell id="d-LDdMAyfOodjSTyU6Is-9" value="Назначение" style="shape=partialRectangle;html=1;whiteSpace=wrap;connectable=0;fillColor=none;top=0;left=0;bottom=0;right=0;overflow=hidden;" parent="d-LDdMAyfOodjSTyU6Is-7" vertex="1">
                    <mxGeometry x="126" width="433" height="47" as="geometry">
                        <mxRectangle width="433" height="47" as="alternateBounds"/>
                    </mxGeometry>
                </mxCell>
                <mxCell id="d-LDdMAyfOodjSTyU6Is-10" value="" style="shape=tableRow;horizontal=0;startSize=0;swimlaneHead=0;swimlaneBody=0;top=0;left=0;bottom=0;right=0;collapsible=0;dropTarget=0;fillColor=none;points=[[0,0.5],[1,0.5]];portConstraint=eastwest;" parent="d-LDdMAyfOodjSTyU6Is-6" vertex="1">
                    <mxGeometry y="77" width="559" height="72" as="geometry"/>
                </mxCell>
                <mxCell id="d-LDdMAyfOodjSTyU6Is-11" value="Центр управления экосистемой (ЦУЭ)&amp;nbsp;" style="shape=partialRectangle;html=1;whiteSpace=wrap;connectable=0;fillColor=none;top=0;left=0;bottom=0;right=0;overflow=hidden;" parent="d-LDdMAyfOodjSTyU6Is-10" vertex="1">
                    <mxGeometry width="126" height="72" as="geometry">
                        <mxRectangle width="126" height="72" as="alternateBounds"/>
                    </mxGeometry>
                </mxCell>
                <mxCell id="d-LDdMAyfOodjSTyU6Is-12" value="ПО, необходимое для получения сведений о экосистеме, конфигурации ее компонентов, администрирования устройств и пользователей.&lt;br&gt;ЦА: Администратор экосистемы" style="shape=partialRectangle;html=1;whiteSpace=wrap;connectable=0;fillColor=none;top=0;left=0;bottom=0;right=0;overflow=hidden;align=left;spacingLeft=6;verticalAlign=top;spacingTop=0;" parent="d-LDdMAyfOodjSTyU6Is-10" vertex="1">
                    <mxGeometry x="126" width="433" height="72" as="geometry">
                        <mxRectangle width="433" height="72" as="alternateBounds"/>
                    </mxGeometry>
                </mxCell>
                <mxCell id="icNQKW_zhWbfwGVAJ3iZ-1" style="shape=tableRow;horizontal=0;startSize=0;swimlaneHead=0;swimlaneBody=0;top=0;left=0;bottom=0;right=0;collapsible=0;dropTarget=0;fillColor=none;points=[[0,0.5],[1,0.5]];portConstraint=eastwest;" parent="d-LDdMAyfOodjSTyU6Is-6" vertex="1">
                    <mxGeometry y="149" width="559" height="77" as="geometry"/>
                </mxCell>
                <mxCell id="icNQKW_zhWbfwGVAJ3iZ-2" value="Центр миграции&amp;nbsp; сервера и подключений" style="shape=partialRectangle;html=1;whiteSpace=wrap;connectable=0;fillColor=none;top=0;left=0;bottom=0;right=0;overflow=hidden;" parent="icNQKW_zhWbfwGVAJ3iZ-1" vertex="1">
                    <mxGeometry width="126" height="77" as="geometry">
                        <mxRectangle width="126" height="77" as="alternateBounds"/>
                    </mxGeometry>
                </mxCell>
                <mxCell id="icNQKW_zhWbfwGVAJ3iZ-3" value="ПО, необходимое для организации:&lt;br&gt;&lt;ul&gt;&lt;li&gt;процесса миграции сервера с одного устройства на другое&lt;/li&gt;&lt;li&gt;процесса объединения серверов в единую сеть&lt;/li&gt;&lt;/ul&gt;" style="shape=partialRectangle;html=1;whiteSpace=wrap;connectable=0;fillColor=none;top=0;left=0;bottom=0;right=0;overflow=hidden;align=left;spacingLeft=6;verticalAlign=top;spacingTop=0;" parent="icNQKW_zhWbfwGVAJ3iZ-1" vertex="1">
                    <mxGeometry x="126" width="433" height="77" as="geometry">
                        <mxRectangle width="433" height="77" as="alternateBounds"/>
                    </mxGeometry>
                </mxCell>
                <mxCell id="2" style="shape=tableRow;horizontal=0;startSize=0;swimlaneHead=0;swimlaneBody=0;top=0;left=0;bottom=0;right=0;collapsible=0;dropTarget=0;fillColor=none;points=[[0,0.5],[1,0.5]];portConstraint=eastwest;" parent="d-LDdMAyfOodjSTyU6Is-6" vertex="1">
                    <mxGeometry y="226" width="559" height="124" as="geometry"/>
                </mxCell>
                <mxCell id="3" value="Менеджер управления компонентами" style="shape=partialRectangle;html=1;whiteSpace=wrap;connectable=0;fillColor=none;top=0;left=0;bottom=0;right=0;overflow=hidden;" parent="2" vertex="1">
                    <mxGeometry width="126" height="124" as="geometry">
                        <mxRectangle width="126" height="124" as="alternateBounds"/>
                    </mxGeometry>
                </mxCell>
                <mxCell id="4" value="ПО, выполняющее следующие задачи:&lt;br&gt;&lt;ul&gt;&lt;li&gt;запуск экосистемы на стороне сервера&lt;/li&gt;&lt;li&gt;организация взаимодействия компонентов (передача компонентам информации о других, от которых он зависит)&lt;/li&gt;&lt;li&gt;хранение информации о запущенных компонентах&lt;/li&gt;&lt;/ul&gt;" style="shape=partialRectangle;html=1;whiteSpace=wrap;connectable=0;fillColor=none;top=0;left=0;bottom=0;right=0;overflow=hidden;align=left;spacingLeft=6;verticalAlign=top;spacingTop=0;" parent="2" vertex="1">
                    <mxGeometry x="126" width="433" height="124" as="geometry">
                        <mxRectangle width="433" height="124" as="alternateBounds"/>
                    </mxGeometry>
                </mxCell>
                <mxCell id="Sb-Cl2sHSRbLzL8PWTHH-4" style="shape=tableRow;horizontal=0;startSize=0;swimlaneHead=0;swimlaneBody=0;top=0;left=0;bottom=0;right=0;collapsible=0;dropTarget=0;fillColor=none;points=[[0,0.5],[1,0.5]];portConstraint=eastwest;" parent="d-LDdMAyfOodjSTyU6Is-6" vertex="1">
                    <mxGeometry y="350" width="559" height="90" as="geometry"/>
                </mxCell>
                <mxCell id="Sb-Cl2sHSRbLzL8PWTHH-5" value="Маршрутизатор" style="shape=partialRectangle;html=1;whiteSpace=wrap;connectable=0;fillColor=none;top=0;left=0;bottom=0;right=0;overflow=hidden;" parent="Sb-Cl2sHSRbLzL8PWTHH-4" vertex="1">
                    <mxGeometry width="126" height="90" as="geometry">
                        <mxRectangle width="126" height="90" as="alternateBounds"/>
                    </mxGeometry>
                </mxCell>
                <mxCell id="Sb-Cl2sHSRbLzL8PWTHH-6" value="ПО, выполняющее следующие задачи:&lt;br&gt;&lt;ul&gt;&lt;li&gt;маршуритизация запросов от клиента к нужному компоненту на сервере и обратно&lt;/li&gt;&lt;/ul&gt;" style="shape=partialRectangle;html=1;whiteSpace=wrap;connectable=0;fillColor=none;top=0;left=0;bottom=0;right=0;overflow=hidden;align=left;spacingLeft=6;verticalAlign=top;spacingTop=0;" parent="Sb-Cl2sHSRbLzL8PWTHH-4" vertex="1">
                    <mxGeometry x="126" width="433" height="90" as="geometry">
                        <mxRectangle width="433" height="90" as="alternateBounds"/>
                    </mxGeometry>
                </mxCell>
                <mxCell id="1Sa1I6vdNpT_FlD2xJK6-5" style="edgeStyle=orthogonalEdgeStyle;rounded=0;orthogonalLoop=1;jettySize=auto;html=1;fontSize=20;" parent="1" source="d-LDdMAyfOodjSTyU6Is-34" target="d-LDdMAyfOodjSTyU6Is-37" edge="1">
                    <mxGeometry relative="1" as="geometry">
                        <Array as="points">
                            <mxPoint x="866" y="1580"/>
                            <mxPoint x="866" y="1580"/>
                        </Array>
                    </mxGeometry>
                </mxCell>
                <mxCell id="d-LDdMAyfOodjSTyU6Is-34" value="Безопасность" style="shape=partialRectangle;html=1;whiteSpace=wrap;connectable=1;top=1;left=1;bottom=1;right=1;overflow=hidden;shadow=0;strokeWidth=1;perimeterSpacing=1;fillColor=default;strokeColor=default;" parent="1" vertex="1">
                    <mxGeometry x="811" y="1615" width="110" height="55" as="geometry">
                        <mxRectangle width="126" height="73" as="alternateBounds"/>
                    </mxGeometry>
                </mxCell>
                <mxCell id="d-LDdMAyfOodjSTyU6Is-113" style="edgeStyle=orthogonalEdgeStyle;rounded=0;jumpStyle=arc;orthogonalLoop=1;jettySize=auto;html=1;fontSize=12;startArrow=none;startFill=0;endArrow=classic;endFill=1;elbow=vertical;" parent="1" source="d-LDdMAyfOodjSTyU6Is-35" target="d-LDdMAyfOodjSTyU6Is-34" edge="1">
                    <mxGeometry relative="1" as="geometry">
                        <Array as="points">
                            <mxPoint x="760" y="1700"/>
                            <mxPoint x="830" y="1700"/>
                        </Array>
                    </mxGeometry>
                </mxCell>
                <mxCell id="y9z4vG6_L7ZvZbYyWmsi-4" style="edgeStyle=orthogonalEdgeStyle;rounded=0;orthogonalLoop=1;jettySize=auto;html=1;fontSize=14;" parent="1" source="d-LDdMAyfOodjSTyU6Is-35" target="d-LDdMAyfOodjSTyU6Is-40" edge="1">
                    <mxGeometry relative="1" as="geometry"/>
                </mxCell>
                <mxCell id="d-LDdMAyfOodjSTyU6Is-35" value="Статистика" style="shape=partialRectangle;html=1;whiteSpace=wrap;connectable=1;fillColor=default;top=1;left=1;bottom=1;right=1;overflow=hidden;" parent="1" vertex="1">
                    <mxGeometry x="670" y="1711.5" width="100" height="57" as="geometry">
                        <mxRectangle width="126" height="77" as="alternateBounds"/>
                    </mxGeometry>
                </mxCell>
                <mxCell id="d-LDdMAyfOodjSTyU6Is-36" value="Хранение данных" style="shape=partialRectangle;html=1;whiteSpace=wrap;connectable=1;fillColor=none;top=1;left=1;bottom=1;right=1;overflow=hidden;" parent="1" vertex="1">
                    <mxGeometry x="431" y="1600" width="120" height="60" as="geometry">
                        <mxRectangle width="126" height="76" as="alternateBounds"/>
                    </mxGeometry>
                </mxCell>
                <mxCell id="d-LDdMAyfOodjSTyU6Is-110" style="edgeStyle=elbowEdgeStyle;rounded=0;jumpStyle=arc;orthogonalLoop=1;jettySize=auto;elbow=vertical;html=1;fontSize=12;startArrow=classic;startFill=1;endArrow=classic;endFill=1;" parent="1" source="d-LDdMAyfOodjSTyU6Is-37" target="d-LDdMAyfOodjSTyU6Is-36" edge="1">
                    <mxGeometry relative="1" as="geometry">
                        <Array as="points">
                            <mxPoint x="500" y="1570"/>
                        </Array>
                    </mxGeometry>
                </mxCell>
                <mxCell id="d-LDdMAyfOodjSTyU6Is-37" value="Поддержка аппаратного обеспечения (АО) устройств" style="shape=partialRectangle;html=1;whiteSpace=wrap;connectable=1;fillColor=none;top=1;left=1;bottom=1;right=1;overflow=hidden;" parent="1" vertex="1">
                    <mxGeometry x="431" y="1500" width="490" height="50" as="geometry">
                        <mxRectangle width="126" height="78" as="alternateBounds"/>
                    </mxGeometry>
                </mxCell>
                <mxCell id="d-LDdMAyfOodjSTyU6Is-116" style="edgeStyle=orthogonalEdgeStyle;rounded=0;jumpStyle=arc;orthogonalLoop=1;jettySize=auto;html=1;fontSize=12;startArrow=none;startFill=0;endArrow=classic;endFill=1;elbow=vertical;" parent="1" source="d-LDdMAyfOodjSTyU6Is-38" target="d-LDdMAyfOodjSTyU6Is-35" edge="1">
                    <mxGeometry relative="1" as="geometry">
                        <Array as="points">
                            <mxPoint x="720" y="1790"/>
                            <mxPoint x="720" y="1790"/>
                        </Array>
                    </mxGeometry>
                </mxCell>
                <mxCell id="d-LDdMAyfOodjSTyU6Is-38" value="Распределение вычислительных ресурсов" style="shape=partialRectangle;html=1;whiteSpace=wrap;connectable=1;fillColor=default;top=1;left=1;bottom=1;right=1;overflow=hidden;" parent="1" vertex="1">
                    <mxGeometry x="643" y="1792.5" width="120" height="66" as="geometry">
                        <mxRectangle width="126" height="75" as="alternateBounds"/>
                    </mxGeometry>
                </mxCell>
                <mxCell id="d-LDdMAyfOodjSTyU6Is-114" style="edgeStyle=orthogonalEdgeStyle;rounded=0;jumpStyle=arc;orthogonalLoop=1;jettySize=auto;html=1;fontSize=12;startArrow=none;startFill=0;endArrow=classic;endFill=1;elbow=vertical;" parent="1" source="d-LDdMAyfOodjSTyU6Is-39" target="d-LDdMAyfOodjSTyU6Is-34" edge="1">
                    <mxGeometry relative="1" as="geometry">
                        <Array as="points">
                            <mxPoint x="866" y="1770"/>
                            <mxPoint x="866" y="1770"/>
                        </Array>
                    </mxGeometry>
                </mxCell>
                <mxCell id="d-LDdMAyfOodjSTyU6Is-115" style="edgeStyle=orthogonalEdgeStyle;rounded=0;jumpStyle=arc;orthogonalLoop=1;jettySize=auto;html=1;fontSize=12;startArrow=none;startFill=0;endArrow=classic;endFill=1;elbow=vertical;" parent="1" source="d-LDdMAyfOodjSTyU6Is-39" target="d-LDdMAyfOodjSTyU6Is-38" edge="1">
                    <mxGeometry relative="1" as="geometry">
                        <Array as="points">
                            <mxPoint x="740" y="1826"/>
                            <mxPoint x="740" y="1826"/>
                        </Array>
                    </mxGeometry>
                </mxCell>
                <mxCell id="d-LDdMAyfOodjSTyU6Is-39" value="Управление пользовательской средой" style="shape=partialRectangle;html=1;whiteSpace=wrap;connectable=1;fillColor=default;top=1;left=1;bottom=1;right=1;overflow=hidden;" parent="1" vertex="1">
                    <mxGeometry x="801" y="1792.5" width="120" height="71" as="geometry">
                        <mxRectangle width="126" height="141" as="alternateBounds"/>
                    </mxGeometry>
                </mxCell>
                <mxCell id="d-LDdMAyfOodjSTyU6Is-107" style="edgeStyle=orthogonalEdgeStyle;rounded=0;jumpStyle=arc;orthogonalLoop=1;jettySize=auto;elbow=vertical;html=1;fontSize=12;startArrow=none;startFill=0;endArrow=classic;endFill=1;" parent="1" source="d-LDdMAyfOodjSTyU6Is-40" target="d-LDdMAyfOodjSTyU6Is-34" edge="1">
                    <mxGeometry relative="1" as="geometry">
                        <Array as="points">
                            <mxPoint x="760" y="1645"/>
                            <mxPoint x="760" y="1645"/>
                        </Array>
                    </mxGeometry>
                </mxCell>
                <mxCell id="1Sa1I6vdNpT_FlD2xJK6-4" style="edgeStyle=orthogonalEdgeStyle;rounded=0;orthogonalLoop=1;jettySize=auto;html=1;fontSize=20;" parent="1" source="d-LDdMAyfOodjSTyU6Is-40" target="d-LDdMAyfOodjSTyU6Is-37" edge="1">
                    <mxGeometry relative="1" as="geometry"/>
                </mxCell>
                <mxCell id="d-LDdMAyfOodjSTyU6Is-40" value="Регистрация объектов" style="shape=partialRectangle;html=1;whiteSpace=wrap;connectable=1;fillColor=default;top=1;left=1;bottom=1;right=1;overflow=hidden;" parent="1" vertex="1">
                    <mxGeometry x="637" y="1615" width="110" height="55" as="geometry">
                        <mxRectangle width="126" height="75" as="alternateBounds"/>
                    </mxGeometry>
                </mxCell>
                <mxCell id="d-LDdMAyfOodjSTyU6Is-41" value="&lt;h1&gt;Граф зависимостей объектов экосистемы (1 ур.)&lt;/h1&gt;&lt;div&gt;&lt;font style=&quot;font-size: 14px;&quot;&gt;Описание: орграф, представляющий зависимости объектов 1 уровня экосистемы друг от друга.&lt;/font&gt;&lt;/div&gt;" style="text;html=1;strokeColor=none;fillColor=none;spacing=5;spacingTop=-20;whiteSpace=wrap;overflow=hidden;rounded=0;fontColor=#333333;" parent="1" vertex="1">
                    <mxGeometry x="40" y="1320" width="300" height="170" as="geometry"/>
                </mxCell>
                <mxCell id="d-LDdMAyfOodjSTyU6Is-42" value="Центр управления экосистемой" style="shape=partialRectangle;html=1;whiteSpace=wrap;connectable=1;fillColor=default;top=1;left=1;bottom=1;right=1;overflow=hidden;" parent="1" vertex="1">
                    <mxGeometry x="511" y="1930" width="126" height="73" as="geometry">
                        <mxRectangle width="126" height="73" as="alternateBounds"/>
                    </mxGeometry>
                </mxCell>
                <mxCell id="d-LDdMAyfOodjSTyU6Is-86" style="edgeStyle=orthogonalEdgeStyle;rounded=0;orthogonalLoop=1;jettySize=auto;html=1;fontSize=12;" parent="1" source="d-LDdMAyfOodjSTyU6Is-42" edge="1">
                    <mxGeometry relative="1" as="geometry">
                        <mxPoint x="574" y="1900" as="targetPoint"/>
                    </mxGeometry>
                </mxCell>
                <mxCell id="icNQKW_zhWbfwGVAJ3iZ-5" value="Центр миграции сервера и подключений" style="shape=partialRectangle;html=1;whiteSpace=wrap;connectable=1;fillColor=default;top=1;left=1;bottom=1;right=1;overflow=hidden;" parent="1" vertex="1">
                    <mxGeometry x="705" y="1930" width="126" height="73" as="geometry">
                        <mxRectangle width="126" height="73" as="alternateBounds"/>
                    </mxGeometry>
                </mxCell>
                <mxCell id="icNQKW_zhWbfwGVAJ3iZ-6" style="edgeStyle=orthogonalEdgeStyle;rounded=0;orthogonalLoop=1;jettySize=auto;html=1;fontSize=12;" parent="1" source="icNQKW_zhWbfwGVAJ3iZ-5" edge="1">
                    <mxGeometry relative="1" as="geometry">
                        <mxPoint x="768" y="1900" as="targetPoint"/>
                    </mxGeometry>
                </mxCell>
                <mxCell id="d-LDdMAyfOodjSTyU6Is-60" value="" style="group" parent="1" vertex="1" connectable="0">
                    <mxGeometry x="1037.6170212765958" y="1430" width="225.95744680851064" height="20" as="geometry"/>
                </mxCell>
                <mxCell id="d-LDdMAyfOodjSTyU6Is-43" value="&lt;font style=&quot;font-size: 12px;&quot;&gt;Entity A&lt;/font&gt;" style="whiteSpace=wrap;html=1;align=center;shadow=0;sketch=0;fontSize=14;strokeColor=default;strokeWidth=1;fillColor=none;" parent="d-LDdMAyfOodjSTyU6Is-60" vertex="1">
                    <mxGeometry width="87.87234042553192" height="20" as="geometry"/>
                </mxCell>
                <mxCell id="d-LDdMAyfOodjSTyU6Is-44" value="&lt;font style=&quot;font-size: 12px;&quot;&gt;Entity B&lt;/font&gt;" style="whiteSpace=wrap;html=1;align=center;shadow=0;sketch=0;fontSize=14;strokeColor=default;strokeWidth=1;fillColor=none;" parent="d-LDdMAyfOodjSTyU6Is-60" vertex="1">
                    <mxGeometry x="138.08510638297872" width="87.87234042553192" height="20" as="geometry"/>
                </mxCell>
                <mxCell id="d-LDdMAyfOodjSTyU6Is-45" value="" style="edgeStyle=orthogonalEdgeStyle;rounded=0;orthogonalLoop=1;jettySize=auto;html=1;fontSize=12;" parent="d-LDdMAyfOodjSTyU6Is-60" source="d-LDdMAyfOodjSTyU6Is-43" target="d-LDdMAyfOodjSTyU6Is-44" edge="1">
                    <mxGeometry relative="1" as="geometry"/>
                </mxCell>
                <mxCell id="d-LDdMAyfOodjSTyU6Is-81" value="" style="group" parent="1" vertex="1" connectable="0">
                    <mxGeometry x="1018.13" y="1540" width="264.94" height="45" as="geometry"/>
                </mxCell>
                <mxCell id="d-LDdMAyfOodjSTyU6Is-75" value="&lt;font style=&quot;font-size: 12px;&quot;&gt;Entity A&lt;/font&gt;" style="whiteSpace=wrap;html=1;align=center;shadow=0;sketch=0;fontSize=14;strokeColor=default;strokeWidth=1;fillColor=none;" parent="d-LDdMAyfOodjSTyU6Is-81" vertex="1">
                    <mxGeometry y="12.5" width="84.68401826484019" height="20" as="geometry"/>
                </mxCell>
                <mxCell id="d-LDdMAyfOodjSTyU6Is-80" value="" style="group" parent="d-LDdMAyfOodjSTyU6Is-81" vertex="1" connectable="0">
                    <mxGeometry x="120.9771689497717" width="143.96283105022832" height="45" as="geometry"/>
                </mxCell>
                <mxCell id="d-LDdMAyfOodjSTyU6Is-72" value="" style="rounded=0;whiteSpace=wrap;html=1;shadow=0;sketch=0;fontSize=12;strokeColor=default;strokeWidth=1;fillColor=none;" parent="d-LDdMAyfOodjSTyU6Is-80" vertex="1">
                    <mxGeometry width="143.96283105022832" height="45" as="geometry"/>
                </mxCell>
                <mxCell id="d-LDdMAyfOodjSTyU6Is-78" value="" style="group" parent="d-LDdMAyfOodjSTyU6Is-80" vertex="1" connectable="0">
                    <mxGeometry x="11.074063926940683" y="7.5" width="121.81470319634695" height="30" as="geometry"/>
                </mxCell>
                <mxCell id="d-LDdMAyfOodjSTyU6Is-69" value="&lt;font style=&quot;font-size: 12px;&quot;&gt;Entity B&lt;/font&gt;" style="whiteSpace=wrap;html=1;align=center;shadow=0;sketch=0;fontSize=14;strokeColor=default;strokeWidth=1;fillColor=none;" parent="d-LDdMAyfOodjSTyU6Is-78" vertex="1">
                    <mxGeometry width="55.37031963470319" height="20" as="geometry"/>
                </mxCell>
                <mxCell id="d-LDdMAyfOodjSTyU6Is-70" value="&lt;font style=&quot;font-size: 12px;&quot;&gt;Entity C&lt;/font&gt;" style="whiteSpace=wrap;html=1;align=center;shadow=0;sketch=0;fontSize=14;strokeColor=default;strokeWidth=1;fillColor=none;" parent="d-LDdMAyfOodjSTyU6Is-78" vertex="1">
                    <mxGeometry x="66.44438356164382" y="10" width="55.37031963470319" height="20" as="geometry"/>
                </mxCell>
                <mxCell id="d-LDdMAyfOodjSTyU6Is-71" value="" style="edgeStyle=orthogonalEdgeStyle;rounded=0;orthogonalLoop=1;jettySize=auto;html=1;fontSize=12;entryX=0;entryY=0.5;entryDx=0;entryDy=0;" parent="d-LDdMAyfOodjSTyU6Is-81" source="d-LDdMAyfOodjSTyU6Is-75" target="d-LDdMAyfOodjSTyU6Is-72" edge="1">
                    <mxGeometry relative="1" as="geometry">
                        <mxPoint x="96.78173515981736" y="160" as="sourcePoint"/>
                        <mxPoint x="133.07488584474885" y="100" as="targetPoint"/>
                    </mxGeometry>
                </mxCell>
                <mxCell id="icNQKW_zhWbfwGVAJ3iZ-19" value="" style="group" parent="1" vertex="1" connectable="0">
                    <mxGeometry x="1037.6170212765956" y="1480" width="225.95744680851064" height="20" as="geometry"/>
                </mxCell>
                <mxCell id="icNQKW_zhWbfwGVAJ3iZ-20" value="&lt;font style=&quot;font-size: 12px;&quot;&gt;Entity A&lt;/font&gt;" style="whiteSpace=wrap;html=1;align=center;shadow=0;sketch=0;fontSize=14;strokeColor=default;strokeWidth=1;fillColor=none;" parent="icNQKW_zhWbfwGVAJ3iZ-19" vertex="1">
                    <mxGeometry width="87.87234042553192" height="20" as="geometry"/>
                </mxCell>
                <mxCell id="icNQKW_zhWbfwGVAJ3iZ-21" value="&lt;font style=&quot;font-size: 12px;&quot;&gt;Entity B&lt;/font&gt;" style="whiteSpace=wrap;html=1;align=center;shadow=0;sketch=0;fontSize=14;strokeColor=default;strokeWidth=1;fillColor=none;" parent="icNQKW_zhWbfwGVAJ3iZ-19" vertex="1">
                    <mxGeometry x="138.08510638297872" width="87.87234042553192" height="20" as="geometry"/>
                </mxCell>
                <mxCell id="icNQKW_zhWbfwGVAJ3iZ-22" value="" style="edgeStyle=orthogonalEdgeStyle;rounded=0;orthogonalLoop=1;jettySize=auto;html=1;fontSize=12;dashed=1;" parent="icNQKW_zhWbfwGVAJ3iZ-19" source="icNQKW_zhWbfwGVAJ3iZ-20" target="icNQKW_zhWbfwGVAJ3iZ-21" edge="1">
                    <mxGeometry relative="1" as="geometry"/>
                </mxCell>
                <mxCell id="Kn0L-3r4lOMoLDCdbhHJ-1" value="&lt;h1&gt;Часть компонента экосистемы&lt;/h1&gt;&lt;div style=&quot;font-size: 14px;&quot;&gt;Описание: структурная единица компонента экосистемы. Отвечает за какую-либо функцию компонента.&lt;/div&gt;&lt;div style=&quot;font-size: 14px;&quot;&gt;&lt;br&gt;&lt;/div&gt;&lt;div style=&quot;font-size: 14px;&quot;&gt;Каждая часть может находится на стороне сервера и/или клиента.&lt;/div&gt;&lt;div style=&quot;font-size: 14px;&quot;&gt;&lt;br&gt;&lt;/div&gt;&lt;div style=&quot;font-size: 14px;&quot;&gt;Объект экосистемы 2 уровня&lt;/div&gt;" style="text;html=1;strokeColor=none;fillColor=none;spacing=5;spacingTop=-20;whiteSpace=wrap;overflow=hidden;rounded=0;fontColor=#333333;" parent="1" vertex="1">
                    <mxGeometry x="1720" y="80" width="300" height="280" as="geometry"/>
                </mxCell>
                <mxCell id="Kn0L-3r4lOMoLDCdbhHJ-2" value="Перечень частей компонента экосистемы" style="shape=table;startSize=30;container=1;collapsible=0;childLayout=tableLayout;fontStyle=1;align=center;verticalAlign=top;strokeColor=default;swimlaneLine=1;shadow=0;fillColor=default;" parent="1" vertex="1">
                    <mxGeometry x="2041" y="80" width="999" height="449.78999999999996" as="geometry"/>
                </mxCell>
                <mxCell id="Kn0L-3r4lOMoLDCdbhHJ-3" value="" style="shape=tableRow;horizontal=0;startSize=0;swimlaneHead=0;swimlaneBody=0;top=0;left=0;bottom=0;right=0;collapsible=0;dropTarget=0;fillColor=none;points=[[0,0.5],[1,0.5]];portConstraint=eastwest;" parent="Kn0L-3r4lOMoLDCdbhHJ-2" vertex="1">
                    <mxGeometry y="30" width="999" height="44" as="geometry"/>
                </mxCell>
                <mxCell id="Kn0L-3r4lOMoLDCdbhHJ-4" value="Имя" style="shape=partialRectangle;html=1;whiteSpace=wrap;connectable=0;fillColor=none;top=0;left=0;bottom=0;right=0;overflow=hidden;" parent="Kn0L-3r4lOMoLDCdbhHJ-3" vertex="1">
                    <mxGeometry width="78" height="44" as="geometry">
                        <mxRectangle width="78" height="44" as="alternateBounds"/>
                    </mxGeometry>
                </mxCell>
                <mxCell id="Kn0L-3r4lOMoLDCdbhHJ-5" value="Назначение" style="shape=partialRectangle;html=1;whiteSpace=wrap;connectable=0;fillColor=none;top=0;left=0;bottom=0;right=0;overflow=hidden;" parent="Kn0L-3r4lOMoLDCdbhHJ-3" vertex="1">
                    <mxGeometry x="78" width="267" height="44" as="geometry">
                        <mxRectangle width="267" height="44" as="alternateBounds"/>
                    </mxGeometry>
                </mxCell>
                <mxCell id="Kn0L-3r4lOMoLDCdbhHJ-6" value="Описание" style="shape=partialRectangle;html=1;whiteSpace=wrap;connectable=0;fillColor=none;top=0;left=0;bottom=0;right=0;overflow=hidden;" parent="Kn0L-3r4lOMoLDCdbhHJ-3" vertex="1">
                    <mxGeometry x="345" width="426" height="44" as="geometry">
                        <mxRectangle width="426" height="44" as="alternateBounds"/>
                    </mxGeometry>
                </mxCell>
                <mxCell id="YyBgT22ppclSHke5pbse-12" value="На стороне сервера" style="shape=partialRectangle;html=1;whiteSpace=wrap;connectable=0;fillColor=none;top=0;left=0;bottom=0;right=0;overflow=hidden;" parent="Kn0L-3r4lOMoLDCdbhHJ-3" vertex="1">
                    <mxGeometry x="771" width="108" height="44" as="geometry">
                        <mxRectangle width="108" height="44" as="alternateBounds"/>
                    </mxGeometry>
                </mxCell>
                <mxCell id="YyBgT22ppclSHke5pbse-4" value="На стороне клиента" style="shape=partialRectangle;html=1;whiteSpace=wrap;connectable=0;fillColor=none;top=0;left=0;bottom=0;right=0;overflow=hidden;" parent="Kn0L-3r4lOMoLDCdbhHJ-3" vertex="1">
                    <mxGeometry x="879" width="120" height="44" as="geometry">
                        <mxRectangle width="120" height="44" as="alternateBounds"/>
                    </mxGeometry>
                </mxCell>
                <mxCell id="Kn0L-3r4lOMoLDCdbhHJ-23" style="shape=tableRow;horizontal=0;startSize=0;swimlaneHead=0;swimlaneBody=0;top=0;left=0;bottom=0;right=0;collapsible=0;dropTarget=0;fillColor=none;points=[[0,0.5],[1,0.5]];portConstraint=eastwest;" parent="Kn0L-3r4lOMoLDCdbhHJ-2" vertex="1">
                    <mxGeometry y="74" width="999" height="62" as="geometry"/>
                </mxCell>
                <mxCell id="Kn0L-3r4lOMoLDCdbhHJ-24" value="Передатчик сообщений" style="shape=partialRectangle;html=1;whiteSpace=wrap;connectable=0;fillColor=none;top=0;left=0;bottom=0;right=0;overflow=hidden;" parent="Kn0L-3r4lOMoLDCdbhHJ-23" vertex="1">
                    <mxGeometry width="78" height="62" as="geometry">
                        <mxRectangle width="78" height="62" as="alternateBounds"/>
                    </mxGeometry>
                </mxCell>
                <mxCell id="Kn0L-3r4lOMoLDCdbhHJ-25" value="Организация передачи сообщений между серверной и клиентскими сторонами компонента." style="shape=partialRectangle;html=1;whiteSpace=wrap;connectable=0;fillColor=none;top=0;left=0;bottom=0;right=0;overflow=hidden;align=left;spacingLeft=6;verticalAlign=top;" parent="Kn0L-3r4lOMoLDCdbhHJ-23" vertex="1">
                    <mxGeometry x="78" width="267" height="62" as="geometry">
                        <mxRectangle width="267" height="62" as="alternateBounds"/>
                    </mxGeometry>
                </mxCell>
                <mxCell id="Kn0L-3r4lOMoLDCdbhHJ-26" value="Поддерживает различную степень сжатия передаваемой информации. Умеет динамически менять степень сжатия на основе скорости сети и доступных вычислительных мощностей сторон." style="shape=partialRectangle;html=1;whiteSpace=wrap;connectable=0;fillColor=none;top=0;left=0;bottom=0;right=0;overflow=hidden;align=left;spacingLeft=6;verticalAlign=top;" parent="Kn0L-3r4lOMoLDCdbhHJ-23" vertex="1">
                    <mxGeometry x="345" width="426" height="62" as="geometry">
                        <mxRectangle width="426" height="62" as="alternateBounds"/>
                    </mxGeometry>
                </mxCell>
                <mxCell id="YyBgT22ppclSHke5pbse-16" value="+&lt;br&gt;&lt;span style=&quot;font-size: 14px;&quot;&gt;обязательно&lt;/span&gt;" style="shape=partialRectangle;html=1;whiteSpace=wrap;connectable=0;fillColor=none;top=0;left=0;bottom=0;right=0;overflow=hidden;align=center;spacingLeft=6;verticalAlign=middle;fontSize=20;" parent="Kn0L-3r4lOMoLDCdbhHJ-23" vertex="1">
                    <mxGeometry x="771" width="108" height="62" as="geometry">
                        <mxRectangle width="108" height="62" as="alternateBounds"/>
                    </mxGeometry>
                </mxCell>
                <mxCell id="YyBgT22ppclSHke5pbse-8" value="+&lt;br&gt;&lt;span style=&quot;font-size: 14px;&quot;&gt;обязательно&lt;/span&gt;" style="shape=partialRectangle;html=1;whiteSpace=wrap;connectable=0;fillColor=none;top=0;left=0;bottom=0;right=0;overflow=hidden;align=center;spacingLeft=6;verticalAlign=middle;fontSize=20;" parent="Kn0L-3r4lOMoLDCdbhHJ-23" vertex="1">
                    <mxGeometry x="879" width="120" height="62" as="geometry">
                        <mxRectangle width="120" height="62" as="alternateBounds"/>
                    </mxGeometry>
                </mxCell>
                <mxCell id="Kn0L-3r4lOMoLDCdbhHJ-28" style="shape=tableRow;horizontal=0;startSize=0;swimlaneHead=0;swimlaneBody=0;top=0;left=0;bottom=0;right=0;collapsible=0;dropTarget=0;fillColor=none;points=[[0,0.5],[1,0.5]];portConstraint=eastwest;" parent="Kn0L-3r4lOMoLDCdbhHJ-2" vertex="1">
                    <mxGeometry y="136" width="999" height="174" as="geometry"/>
                </mxCell>
                <mxCell id="Kn0L-3r4lOMoLDCdbhHJ-29" value="Обмен данных с об. 1 уровня" style="shape=partialRectangle;html=1;whiteSpace=wrap;connectable=0;fillColor=none;top=0;left=0;bottom=0;right=0;overflow=hidden;" parent="Kn0L-3r4lOMoLDCdbhHJ-28" vertex="1">
                    <mxGeometry width="78" height="174" as="geometry">
                        <mxRectangle width="78" height="174" as="alternateBounds"/>
                    </mxGeometry>
                </mxCell>
                <mxCell id="Kn0L-3r4lOMoLDCdbhHJ-30" value="Организация взаимодействия с внешним**&amp;nbsp; (организация диалога создания, изменения, удаления данных компонента в хранилище)&lt;br&gt;&lt;br&gt;Предоставление пользователю компонента интерфейса взаимодействия с ним. Организация взаимодействия пользователя с конфигурацией компонента." style="shape=partialRectangle;html=1;whiteSpace=wrap;connectable=0;fillColor=none;top=0;left=0;bottom=0;right=0;overflow=hidden;align=left;spacingLeft=6;verticalAlign=top;" parent="Kn0L-3r4lOMoLDCdbhHJ-28" vertex="1">
                    <mxGeometry x="78" width="267" height="174" as="geometry">
                        <mxRectangle width="267" height="174" as="alternateBounds"/>
                    </mxGeometry>
                </mxCell>
                <mxCell id="Kn0L-3r4lOMoLDCdbhHJ-31" value="Использует легковесный* протокол взаимоействия с хранилищем. Имеет кэш небольшого размера (для хранения данных о доступных хранилищах). Узнает о работоспособности внешнего хранилища от него самого. Эта часть является проактивной: умеет создавать запросы и отвечать на них.&lt;br&gt;&lt;br&gt;Легковесный*, единообразный для всех компонентов. Поддерживает частичную&amp;nbsp;загрузку данных (пример: при обновлении конфигурации загружается лишь измененная часть). Является текстовым, пригодным для интерпроцессной коммуникации. Пример: json.&lt;br&gt;Является пассивным, т.е. лишь отвечает на внешний запрос." style="shape=partialRectangle;html=1;whiteSpace=wrap;connectable=0;fillColor=none;top=0;left=0;bottom=0;right=0;overflow=hidden;align=left;spacingLeft=6;verticalAlign=top;" parent="Kn0L-3r4lOMoLDCdbhHJ-28" vertex="1">
                    <mxGeometry x="345" width="426" height="174" as="geometry">
                        <mxRectangle width="426" height="174" as="alternateBounds"/>
                    </mxGeometry>
                </mxCell>
                <mxCell id="YyBgT22ppclSHke5pbse-17" value="+&lt;br&gt;&lt;span style=&quot;font-size: 14px;&quot;&gt;обязательно&lt;/span&gt;" style="shape=partialRectangle;html=1;whiteSpace=wrap;connectable=0;fillColor=none;top=0;left=0;bottom=0;right=0;overflow=hidden;align=center;spacingLeft=6;verticalAlign=middle;fontSize=20;" parent="Kn0L-3r4lOMoLDCdbhHJ-28" vertex="1">
                    <mxGeometry x="771" width="108" height="174" as="geometry">
                        <mxRectangle width="108" height="174" as="alternateBounds"/>
                    </mxGeometry>
                </mxCell>
                <mxCell id="YyBgT22ppclSHke5pbse-9" value="+***&lt;br&gt;&lt;font style=&quot;font-size: 14px;&quot;&gt;необязательно&lt;/font&gt;" style="shape=partialRectangle;html=1;whiteSpace=wrap;connectable=0;fillColor=none;top=0;left=0;bottom=0;right=0;overflow=hidden;align=center;spacingLeft=6;verticalAlign=middle;fontSize=20;" parent="Kn0L-3r4lOMoLDCdbhHJ-28" vertex="1">
                    <mxGeometry x="879" width="120" height="174" as="geometry">
                        <mxRectangle width="120" height="174" as="alternateBounds"/>
                    </mxGeometry>
                </mxCell>
                <mxCell id="Kn0L-3r4lOMoLDCdbhHJ-33" style="shape=tableRow;horizontal=0;startSize=0;swimlaneHead=0;swimlaneBody=0;top=0;left=0;bottom=0;right=0;collapsible=0;dropTarget=0;fillColor=none;points=[[0,0.5],[1,0.5]];portConstraint=eastwest;" parent="Kn0L-3r4lOMoLDCdbhHJ-2" vertex="1">
                    <mxGeometry y="310" width="999" height="69" as="geometry"/>
                </mxCell>
                <mxCell id="Kn0L-3r4lOMoLDCdbhHJ-34" value="Кэш" style="shape=partialRectangle;html=1;whiteSpace=wrap;connectable=0;fillColor=none;top=0;left=0;bottom=0;right=0;overflow=hidden;" parent="Kn0L-3r4lOMoLDCdbhHJ-33" vertex="1">
                    <mxGeometry width="78" height="69" as="geometry">
                        <mxRectangle width="78" height="69" as="alternateBounds"/>
                    </mxGeometry>
                </mxCell>
                <mxCell id="Kn0L-3r4lOMoLDCdbhHJ-35" value="Организует хранение часто используемых данных внутри модуля для сокращения времени доступа к ним" style="shape=partialRectangle;html=1;whiteSpace=wrap;connectable=0;fillColor=none;top=0;left=0;bottom=0;right=0;overflow=hidden;align=left;spacingLeft=6;verticalAlign=top;" parent="Kn0L-3r4lOMoLDCdbhHJ-33" vertex="1">
                    <mxGeometry x="78" width="267" height="69" as="geometry">
                        <mxRectangle width="267" height="69" as="alternateBounds"/>
                    </mxGeometry>
                </mxCell>
                <mxCell id="Kn0L-3r4lOMoLDCdbhHJ-36" style="shape=partialRectangle;html=1;whiteSpace=wrap;connectable=0;fillColor=none;top=0;left=0;bottom=0;right=0;overflow=hidden;align=left;spacingLeft=6;verticalAlign=top;" parent="Kn0L-3r4lOMoLDCdbhHJ-33" vertex="1">
                    <mxGeometry x="345" width="426" height="69" as="geometry">
                        <mxRectangle width="426" height="69" as="alternateBounds"/>
                    </mxGeometry>
                </mxCell>
                <mxCell id="YyBgT22ppclSHke5pbse-18" value="+&lt;br&gt;&lt;span style=&quot;font-size: 14px;&quot;&gt;необязательно&lt;/span&gt;" style="shape=partialRectangle;html=1;whiteSpace=wrap;connectable=0;fillColor=none;top=0;left=0;bottom=0;right=0;overflow=hidden;align=center;spacingLeft=6;verticalAlign=middle;fontSize=20;" parent="Kn0L-3r4lOMoLDCdbhHJ-33" vertex="1">
                    <mxGeometry x="771" width="108" height="69" as="geometry">
                        <mxRectangle width="108" height="69" as="alternateBounds"/>
                    </mxGeometry>
                </mxCell>
                <mxCell id="YyBgT22ppclSHke5pbse-10" value="+&lt;br&gt;&lt;span style=&quot;font-size: 14px;&quot;&gt;необязательно&lt;/span&gt;" style="shape=partialRectangle;html=1;whiteSpace=wrap;connectable=0;fillColor=none;top=0;left=0;bottom=0;right=0;overflow=hidden;align=center;spacingLeft=6;verticalAlign=middle;fontSize=20;" parent="Kn0L-3r4lOMoLDCdbhHJ-33" vertex="1">
                    <mxGeometry x="879" width="120" height="69" as="geometry">
                        <mxRectangle width="120" height="69" as="alternateBounds"/>
                    </mxGeometry>
                </mxCell>
                <mxCell id="Kn0L-3r4lOMoLDCdbhHJ-38" style="shape=tableRow;horizontal=0;startSize=0;swimlaneHead=0;swimlaneBody=0;top=0;left=0;bottom=0;right=0;collapsible=0;dropTarget=0;fillColor=none;points=[[0,0.5],[1,0.5]];portConstraint=eastwest;verticalAlign=top;" parent="Kn0L-3r4lOMoLDCdbhHJ-2" vertex="1">
                    <mxGeometry y="379" width="999" height="71" as="geometry"/>
                </mxCell>
                <mxCell id="Kn0L-3r4lOMoLDCdbhHJ-39" value="&lt;span style=&quot;font-size: 11px; background-color: initial;&quot;&gt;*&amp;nbsp;-&amp;nbsp;&lt;/span&gt;&lt;span style=&quot;font-size: 11px;&quot;&gt;Под легковесностью понимамается высокая производительность при минимальном потреблении ресурсов на организацию диалога.&lt;br&gt;&lt;/span&gt;&lt;span style=&quot;font-size: 11px;&quot;&gt;** -&amp;nbsp;&amp;nbsp;&lt;/span&gt;&lt;span style=&quot;font-size: 11px;&quot;&gt;Для компонента &quot;Хранение данных&quot; внешним хранилищем будет БД или ФС.&lt;br&gt;*** - На тонком клиенте отсутсвует&lt;br&gt;&lt;/span&gt;" style="shape=partialRectangle;html=1;whiteSpace=wrap;connectable=0;top=0;left=0;bottom=0;right=0;overflow=hidden;verticalAlign=top;shadow=0;sketch=0;fillColor=none;align=left;spacingLeft=10;rowspan=1;colspan=5;" parent="Kn0L-3r4lOMoLDCdbhHJ-38" vertex="1">
                    <mxGeometry width="999" height="71" as="geometry">
                        <mxRectangle width="78" height="71" as="alternateBounds"/>
                    </mxGeometry>
                </mxCell>
                <mxCell id="Kn0L-3r4lOMoLDCdbhHJ-40" style="shape=partialRectangle;html=1;whiteSpace=wrap;connectable=0;fillColor=none;top=0;left=0;bottom=0;right=0;overflow=hidden;align=left;spacingLeft=6;verticalAlign=top;strokeColor=default;shadow=0;" parent="Kn0L-3r4lOMoLDCdbhHJ-38" vertex="1" visible="0">
                    <mxGeometry x="78" width="267" height="71" as="geometry">
                        <mxRectangle width="267" height="71" as="alternateBounds"/>
                    </mxGeometry>
                </mxCell>
                <mxCell id="Kn0L-3r4lOMoLDCdbhHJ-41" style="shape=partialRectangle;html=1;whiteSpace=wrap;connectable=0;fillColor=none;top=0;left=0;bottom=0;right=0;overflow=hidden;align=left;spacingLeft=6;verticalAlign=top;strokeColor=default;shadow=0;" parent="Kn0L-3r4lOMoLDCdbhHJ-38" vertex="1" visible="0">
                    <mxGeometry x="345" width="426" height="71" as="geometry">
                        <mxRectangle width="426" height="71" as="alternateBounds"/>
                    </mxGeometry>
                </mxCell>
                <mxCell id="YyBgT22ppclSHke5pbse-19" style="shape=partialRectangle;html=1;whiteSpace=wrap;connectable=0;fillColor=none;top=0;left=0;bottom=0;right=0;overflow=hidden;align=left;spacingLeft=6;verticalAlign=top;strokeColor=default;shadow=0;" parent="Kn0L-3r4lOMoLDCdbhHJ-38" vertex="1" visible="0">
                    <mxGeometry x="771" width="108" height="71" as="geometry">
                        <mxRectangle width="108" height="71" as="alternateBounds"/>
                    </mxGeometry>
                </mxCell>
                <mxCell id="YyBgT22ppclSHke5pbse-11" style="shape=partialRectangle;html=1;whiteSpace=wrap;connectable=0;fillColor=none;top=0;left=0;bottom=0;right=0;overflow=hidden;align=left;spacingLeft=6;verticalAlign=top;strokeColor=default;shadow=0;" parent="Kn0L-3r4lOMoLDCdbhHJ-38" vertex="1" visible="0">
                    <mxGeometry x="879" width="120" height="71" as="geometry">
                        <mxRectangle width="120" height="71" as="alternateBounds"/>
                    </mxGeometry>
                </mxCell>
                <mxCell id="YyBgT22ppclSHke5pbse-24" value="О серверной/клиентской стороне компонента" style="swimlane;fontStyle=0;childLayout=stackLayout;horizontal=1;startSize=30;horizontalStack=0;resizeParent=1;resizeParentMax=0;resizeLast=0;collapsible=1;marginBottom=0;whiteSpace=wrap;" parent="1" vertex="1">
                    <mxGeometry x="1720" y="320" width="280" height="320" as="geometry"/>
                </mxCell>
                <mxCell id="YyBgT22ppclSHke5pbse-25" value="О стороне сервера (т.н.серверной части):" style="text;strokeColor=none;fillColor=none;align=left;verticalAlign=middle;spacingLeft=4;spacingRight=4;overflow=hidden;points=[[0,0.5],[1,0.5]];portConstraint=eastwest;rotatable=0;whiteSpace=wrap;" parent="YyBgT22ppclSHke5pbse-24" vertex="1">
                    <mxGeometry y="30" width="280" height="30" as="geometry"/>
                </mxCell>
                <mxCell id="YyBgT22ppclSHke5pbse-26" value="Назначение: организация диалога с клиентами со стороны сервера." style="text;strokeColor=none;fillColor=none;align=left;verticalAlign=middle;spacingLeft=16;spacingRight=4;overflow=hidden;points=[[0,0.5],[1,0.5]];portConstraint=eastwest;rotatable=0;whiteSpace=wrap;" parent="YyBgT22ppclSHke5pbse-24" vertex="1">
                    <mxGeometry y="60" width="280" height="30" as="geometry"/>
                </mxCell>
                <mxCell id="YyBgT22ppclSHke5pbse-28" value="Описание: Реализует функции компонента на стороне сервера. " style="text;strokeColor=none;fillColor=none;align=center;verticalAlign=middle;spacingLeft=16;spacingRight=4;overflow=hidden;points=[[0,0.5],[1,0.5]];portConstraint=eastwest;rotatable=0;whiteSpace=wrap;labelPosition=center;verticalLabelPosition=middle;" parent="YyBgT22ppclSHke5pbse-24" vertex="1">
                    <mxGeometry y="90" width="280" height="40" as="geometry"/>
                </mxCell>
                <mxCell id="YyBgT22ppclSHke5pbse-29" value="О стороне клиента (т.н.клиентской части):" style="text;strokeColor=none;fillColor=none;align=left;verticalAlign=middle;spacingLeft=4;spacingRight=4;overflow=hidden;points=[[0,0.5],[1,0.5]];portConstraint=eastwest;rotatable=0;whiteSpace=wrap;" parent="YyBgT22ppclSHke5pbse-24" vertex="1">
                    <mxGeometry y="130" width="280" height="30" as="geometry"/>
                </mxCell>
                <mxCell id="YyBgT22ppclSHke5pbse-30" value="Назначение: организация диалога с сервером со стороны клиента." style="text;strokeColor=none;fillColor=none;align=left;verticalAlign=middle;spacingLeft=16;spacingRight=4;overflow=hidden;points=[[0,0.5],[1,0.5]];portConstraint=eastwest;rotatable=0;whiteSpace=wrap;" parent="YyBgT22ppclSHke5pbse-24" vertex="1">
                    <mxGeometry y="160" width="280" height="30" as="geometry"/>
                </mxCell>
                <mxCell id="YyBgT22ppclSHke5pbse-31" value="Описание: Реализует функции компонента на стороне клиента." style="text;strokeColor=none;fillColor=none;align=left;verticalAlign=middle;spacingLeft=16;spacingRight=4;overflow=hidden;points=[[0,0.5],[1,0.5]];portConstraint=eastwest;rotatable=0;whiteSpace=wrap;" parent="YyBgT22ppclSHke5pbse-24" vertex="1">
                    <mxGeometry y="190" width="280" height="40" as="geometry"/>
                </mxCell>
                <mxCell id="YyBgT22ppclSHke5pbse-32" value="Общее описание:&#10;Сторона клиента может различаться в зависимости от типа клиента (тонкий, толстый и т.д).&#10;" style="text;strokeColor=default;fillColor=none;align=left;verticalAlign=middle;spacingLeft=4;spacingRight=4;overflow=hidden;points=[[0,0.5],[1,0.5]];portConstraint=eastwest;rotatable=0;whiteSpace=wrap;dashed=1;" parent="YyBgT22ppclSHke5pbse-24" vertex="1">
                    <mxGeometry y="230" width="280" height="90" as="geometry"/>
                </mxCell>
                <mxCell id="YyBgT22ppclSHke5pbse-35" value="Менеджер управления компонентами" style="shape=partialRectangle;html=1;whiteSpace=wrap;connectable=1;fillColor=none;top=1;left=1;bottom=1;right=1;overflow=hidden;" parent="1" vertex="1">
                    <mxGeometry x="440" y="1360" width="126" height="73" as="geometry">
                        <mxRectangle width="126" height="73" as="alternateBounds"/>
                    </mxGeometry>
                </mxCell>
                <mxCell id="YyBgT22ppclSHke5pbse-37" style="edgeStyle=orthogonalEdgeStyle;rounded=0;orthogonalLoop=1;jettySize=auto;html=1;fontSize=20;" parent="1" source="YyBgT22ppclSHke5pbse-36" target="YyBgT22ppclSHke5pbse-35" edge="1">
                    <mxGeometry relative="1" as="geometry"/>
                </mxCell>
                <mxCell id="YyBgT22ppclSHke5pbse-36" value="Маршрутизатор" style="shape=partialRectangle;html=1;whiteSpace=wrap;connectable=1;fillColor=none;top=1;left=1;bottom=1;right=1;overflow=hidden;" parent="1" vertex="1">
                    <mxGeometry x="612" y="1360" width="126" height="73" as="geometry">
                        <mxRectangle width="126" height="73" as="alternateBounds"/>
                    </mxGeometry>
                </mxCell>
                <mxCell id="YyBgT22ppclSHke5pbse-39" style="edgeStyle=orthogonalEdgeStyle;rounded=0;orthogonalLoop=1;jettySize=auto;html=1;fontSize=20;" parent="1" source="YyBgT22ppclSHke5pbse-38" target="YyBgT22ppclSHke5pbse-35" edge="1">
                    <mxGeometry relative="1" as="geometry">
                        <Array as="points">
                            <mxPoint x="503" y="1450"/>
                            <mxPoint x="503" y="1450"/>
                        </Array>
                    </mxGeometry>
                </mxCell>
                <mxCell id="YyBgT22ppclSHke5pbse-43" value="" style="group;fillColor=none;" parent="1" vertex="1" connectable="0">
                    <mxGeometry x="1018.13" y="1640" width="264.94" height="45" as="geometry"/>
                </mxCell>
                <mxCell id="YyBgT22ppclSHke5pbse-44" value="&lt;font style=&quot;font-size: 12px;&quot;&gt;Entity A&lt;/font&gt;" style="whiteSpace=wrap;html=1;align=center;shadow=0;sketch=0;fontSize=14;strokeColor=default;strokeWidth=1;fillColor=none;" parent="YyBgT22ppclSHke5pbse-43" vertex="1">
                    <mxGeometry y="12.5" width="84.68401826484019" height="20" as="geometry"/>
                </mxCell>
                <mxCell id="YyBgT22ppclSHke5pbse-45" value="" style="group" parent="YyBgT22ppclSHke5pbse-43" vertex="1" connectable="0">
                    <mxGeometry x="120.9771689497717" width="143.96283105022832" height="45" as="geometry"/>
                </mxCell>
                <mxCell id="YyBgT22ppclSHke5pbse-46" value="" style="rounded=0;whiteSpace=wrap;html=1;shadow=0;sketch=0;fontSize=12;strokeColor=default;strokeWidth=1;fillColor=none;" parent="YyBgT22ppclSHke5pbse-45" vertex="1">
                    <mxGeometry width="143.96283105022832" height="45" as="geometry"/>
                </mxCell>
                <mxCell id="YyBgT22ppclSHke5pbse-47" value="" style="group" parent="YyBgT22ppclSHke5pbse-45" vertex="1" connectable="0">
                    <mxGeometry x="11.074063926940683" y="7.5" width="121.81470319634695" height="30" as="geometry"/>
                </mxCell>
                <mxCell id="YyBgT22ppclSHke5pbse-48" value="&lt;font style=&quot;font-size: 12px;&quot;&gt;Entity B&lt;/font&gt;" style="whiteSpace=wrap;html=1;align=center;shadow=0;sketch=0;fontSize=14;strokeColor=default;strokeWidth=1;fillColor=none;" parent="YyBgT22ppclSHke5pbse-47" vertex="1">
                    <mxGeometry width="55.37031963470319" height="20" as="geometry"/>
                </mxCell>
                <mxCell id="YyBgT22ppclSHke5pbse-49" value="&lt;font style=&quot;font-size: 12px;&quot;&gt;Entity C&lt;/font&gt;" style="whiteSpace=wrap;html=1;align=center;shadow=0;sketch=0;fontSize=14;strokeColor=default;strokeWidth=1;fillColor=none;" parent="YyBgT22ppclSHke5pbse-47" vertex="1">
                    <mxGeometry x="66.44438356164382" y="10" width="55.37031963470319" height="20" as="geometry"/>
                </mxCell>
                <mxCell id="YyBgT22ppclSHke5pbse-50" value="" style="edgeStyle=orthogonalEdgeStyle;rounded=0;orthogonalLoop=1;jettySize=auto;html=1;fontSize=12;exitX=0;exitY=0.5;exitDx=0;exitDy=0;" parent="YyBgT22ppclSHke5pbse-43" source="YyBgT22ppclSHke5pbse-46" target="YyBgT22ppclSHke5pbse-44" edge="1">
                    <mxGeometry relative="1" as="geometry">
                        <mxPoint x="133.07488584474885" y="100" as="sourcePoint"/>
                        <mxPoint x="96.78173515981736" y="160" as="targetPoint"/>
                    </mxGeometry>
                </mxCell>
            </root>
        </mxGraphModel>
    </diagram>
    <diagram id="8WgQOgbY4txwOqqu0xkl" name="Work list">
        <mxGraphModel dx="771" dy="226" grid="1" gridSize="10" guides="1" tooltips="1" connect="1" arrows="1" fold="1" page="1" pageScale="1" pageWidth="827" pageHeight="1169" math="0" shadow="0">
            <root>
                <mxCell id="0"/>
                <mxCell id="1" parent="0"/>
                <mxCell id="q9Qo7ROFAV8mgY_UIDex-1" value="Перечень приоритетов реализации объектов 1 уровня экосистемы" style="shape=table;startSize=30;container=1;collapsible=0;childLayout=tableLayout;fontStyle=1;align=center;verticalAlign=top;strokeColor=default;swimlaneLine=1;shadow=0;fillColor=default;" parent="1" vertex="1">
                    <mxGeometry x="300" y="40" width="500" height="787.79" as="geometry"/>
                </mxCell>
                <mxCell id="q9Qo7ROFAV8mgY_UIDex-2" value="" style="shape=tableRow;horizontal=0;startSize=0;swimlaneHead=0;swimlaneBody=0;top=0;left=0;bottom=0;right=0;collapsible=0;dropTarget=0;fillColor=none;points=[[0,0.5],[1,0.5]];portConstraint=eastwest;" parent="q9Qo7ROFAV8mgY_UIDex-1" vertex="1">
                    <mxGeometry y="30" width="500" height="60" as="geometry"/>
                </mxCell>
                <mxCell id="q9Qo7ROFAV8mgY_UIDex-3" value="Имя" style="shape=partialRectangle;html=1;whiteSpace=wrap;connectable=0;fillColor=none;top=0;left=0;bottom=0;right=0;overflow=hidden;" parent="q9Qo7ROFAV8mgY_UIDex-2" vertex="1">
                    <mxGeometry width="106" height="60" as="geometry">
                        <mxRectangle width="106" height="60" as="alternateBounds"/>
                    </mxGeometry>
                </mxCell>
                <mxCell id="q9Qo7ROFAV8mgY_UIDex-5" value="Приоритет" style="shape=partialRectangle;html=1;whiteSpace=wrap;connectable=0;fillColor=none;top=0;left=0;bottom=0;right=0;overflow=hidden;" parent="q9Qo7ROFAV8mgY_UIDex-2" vertex="1">
                    <mxGeometry x="106" width="64" height="60" as="geometry">
                        <mxRectangle width="64" height="60" as="alternateBounds"/>
                    </mxGeometry>
                </mxCell>
                <mxCell id="q9Qo7ROFAV8mgY_UIDex-38" value="Ответственный*" style="shape=partialRectangle;html=1;whiteSpace=wrap;connectable=0;fillColor=none;top=0;left=0;bottom=0;right=0;overflow=hidden;" parent="q9Qo7ROFAV8mgY_UIDex-2" vertex="1">
                    <mxGeometry x="170" width="110" height="60" as="geometry">
                        <mxRectangle width="110" height="60" as="alternateBounds"/>
                    </mxGeometry>
                </mxCell>
                <mxCell id="jR_uYHIPBa_riNEjC0p1-1" value="Планируется в прототипе V.1?" style="shape=partialRectangle;html=1;whiteSpace=wrap;connectable=0;fillColor=none;top=0;left=0;bottom=0;right=0;overflow=hidden;" parent="q9Qo7ROFAV8mgY_UIDex-2" vertex="1">
                    <mxGeometry x="280" width="96" height="60" as="geometry">
                        <mxRectangle width="96" height="60" as="alternateBounds"/>
                    </mxGeometry>
                </mxCell>
                <mxCell id="SRa3RJ8Y8ubveqTin2Bf-6" value="Расчетное время выполнения (дней)" style="shape=partialRectangle;html=1;whiteSpace=wrap;connectable=0;fillColor=none;top=0;left=0;bottom=0;right=0;overflow=hidden;" vertex="1" parent="q9Qo7ROFAV8mgY_UIDex-2">
                    <mxGeometry x="376" width="124" height="60" as="geometry">
                        <mxRectangle width="124" height="60" as="alternateBounds"/>
                    </mxGeometry>
                </mxCell>
                <mxCell id="q9Qo7ROFAV8mgY_UIDex-6" value="" style="shape=tableRow;horizontal=0;startSize=0;swimlaneHead=0;swimlaneBody=0;top=0;left=0;bottom=0;right=0;collapsible=0;dropTarget=0;fillColor=none;points=[[0,0.5],[1,0.5]];portConstraint=eastwest;" parent="q9Qo7ROFAV8mgY_UIDex-1" vertex="1">
                    <mxGeometry y="90" width="500" height="46" as="geometry"/>
                </mxCell>
                <mxCell id="q9Qo7ROFAV8mgY_UIDex-7" value="Безопасность" style="shape=partialRectangle;html=1;whiteSpace=wrap;connectable=0;fillColor=none;top=0;left=0;bottom=0;right=0;overflow=hidden;" parent="q9Qo7ROFAV8mgY_UIDex-6" vertex="1">
                    <mxGeometry width="106" height="46" as="geometry">
                        <mxRectangle width="106" height="46" as="alternateBounds"/>
                    </mxGeometry>
                </mxCell>
                <mxCell id="q9Qo7ROFAV8mgY_UIDex-9" value="8" style="shape=partialRectangle;html=1;whiteSpace=wrap;connectable=0;fillColor=none;top=0;left=0;bottom=0;right=0;overflow=hidden;align=center;spacingLeft=6;verticalAlign=middle;spacingTop=0;" parent="q9Qo7ROFAV8mgY_UIDex-6" vertex="1">
                    <mxGeometry x="106" width="64" height="46" as="geometry">
                        <mxRectangle width="64" height="46" as="alternateBounds"/>
                    </mxGeometry>
                </mxCell>
                <mxCell id="q9Qo7ROFAV8mgY_UIDex-39" value="" style="shape=partialRectangle;html=1;whiteSpace=wrap;connectable=0;fillColor=none;top=0;left=0;bottom=0;right=0;overflow=hidden;align=left;spacingLeft=6;verticalAlign=top;spacingTop=0;" parent="q9Qo7ROFAV8mgY_UIDex-6" vertex="1">
                    <mxGeometry x="170" width="110" height="46" as="geometry">
                        <mxRectangle width="110" height="46" as="alternateBounds"/>
                    </mxGeometry>
                </mxCell>
                <mxCell id="jR_uYHIPBa_riNEjC0p1-2" value="-" style="shape=partialRectangle;html=1;whiteSpace=wrap;connectable=0;fillColor=none;top=0;left=0;bottom=0;right=0;overflow=hidden;align=center;spacingLeft=6;verticalAlign=middle;spacingTop=0;fontSize=20;" parent="q9Qo7ROFAV8mgY_UIDex-6" vertex="1">
                    <mxGeometry x="280" width="96" height="46" as="geometry">
                        <mxRectangle width="96" height="46" as="alternateBounds"/>
                    </mxGeometry>
                </mxCell>
                <mxCell id="SRa3RJ8Y8ubveqTin2Bf-7" style="shape=partialRectangle;html=1;whiteSpace=wrap;connectable=0;fillColor=none;top=0;left=0;bottom=0;right=0;overflow=hidden;align=center;spacingLeft=6;verticalAlign=middle;spacingTop=0;fontSize=20;" vertex="1" parent="q9Qo7ROFAV8mgY_UIDex-6">
                    <mxGeometry x="376" width="124" height="46" as="geometry">
                        <mxRectangle width="124" height="46" as="alternateBounds"/>
                    </mxGeometry>
                </mxCell>
                <mxCell id="q9Qo7ROFAV8mgY_UIDex-10" value="" style="shape=tableRow;horizontal=0;startSize=0;swimlaneHead=0;swimlaneBody=0;top=0;left=0;bottom=0;right=0;collapsible=0;dropTarget=0;fillColor=none;points=[[0,0.5],[1,0.5]];portConstraint=eastwest;verticalAlign=middle;" parent="q9Qo7ROFAV8mgY_UIDex-1" vertex="1">
                    <mxGeometry y="136" width="500" height="50" as="geometry"/>
                </mxCell>
                <mxCell id="q9Qo7ROFAV8mgY_UIDex-11" value="Статистика" style="shape=partialRectangle;html=1;whiteSpace=wrap;connectable=0;fillColor=none;top=0;left=0;bottom=0;right=0;overflow=hidden;" parent="q9Qo7ROFAV8mgY_UIDex-10" vertex="1">
                    <mxGeometry width="106" height="50" as="geometry">
                        <mxRectangle width="106" height="50" as="alternateBounds"/>
                    </mxGeometry>
                </mxCell>
                <mxCell id="q9Qo7ROFAV8mgY_UIDex-13" value="4" style="shape=partialRectangle;html=1;whiteSpace=wrap;connectable=0;fillColor=none;top=0;left=0;bottom=0;right=0;overflow=hidden;align=center;spacingLeft=6;verticalAlign=middle;" parent="q9Qo7ROFAV8mgY_UIDex-10" vertex="1">
                    <mxGeometry x="106" width="64" height="50" as="geometry">
                        <mxRectangle width="64" height="50" as="alternateBounds"/>
                    </mxGeometry>
                </mxCell>
                <mxCell id="q9Qo7ROFAV8mgY_UIDex-40" value="Жуйков Ю.В." style="shape=partialRectangle;html=1;whiteSpace=wrap;connectable=0;fillColor=none;top=0;left=0;bottom=0;right=0;overflow=hidden;align=left;spacingLeft=6;verticalAlign=top;" parent="q9Qo7ROFAV8mgY_UIDex-10" vertex="1">
                    <mxGeometry x="170" width="110" height="50" as="geometry">
                        <mxRectangle width="110" height="50" as="alternateBounds"/>
                    </mxGeometry>
                </mxCell>
                <mxCell id="jR_uYHIPBa_riNEjC0p1-3" value="+" style="shape=partialRectangle;html=1;whiteSpace=wrap;connectable=0;fillColor=none;top=0;left=0;bottom=0;right=0;overflow=hidden;align=center;spacingLeft=6;verticalAlign=middle;fontSize=20;" parent="q9Qo7ROFAV8mgY_UIDex-10" vertex="1">
                    <mxGeometry x="280" width="96" height="50" as="geometry">
                        <mxRectangle width="96" height="50" as="alternateBounds"/>
                    </mxGeometry>
                </mxCell>
                <mxCell id="SRa3RJ8Y8ubveqTin2Bf-8" value="10" style="shape=partialRectangle;html=1;whiteSpace=wrap;connectable=0;fillColor=none;top=0;left=0;bottom=0;right=0;overflow=hidden;align=center;spacingLeft=6;verticalAlign=middle;fontSize=20;" vertex="1" parent="q9Qo7ROFAV8mgY_UIDex-10">
                    <mxGeometry x="376" width="124" height="50" as="geometry">
                        <mxRectangle width="124" height="50" as="alternateBounds"/>
                    </mxGeometry>
                </mxCell>
                <mxCell id="q9Qo7ROFAV8mgY_UIDex-14" style="shape=tableRow;horizontal=0;startSize=0;swimlaneHead=0;swimlaneBody=0;top=0;left=0;bottom=0;right=0;collapsible=0;dropTarget=0;fillColor=none;points=[[0,0.5],[1,0.5]];portConstraint=eastwest;" parent="q9Qo7ROFAV8mgY_UIDex-1" vertex="1">
                    <mxGeometry y="186" width="500" height="40" as="geometry"/>
                </mxCell>
                <mxCell id="q9Qo7ROFAV8mgY_UIDex-15" value="Хранение данных" style="shape=partialRectangle;html=1;whiteSpace=wrap;connectable=0;fillColor=none;top=0;left=0;bottom=0;right=0;overflow=hidden;" parent="q9Qo7ROFAV8mgY_UIDex-14" vertex="1">
                    <mxGeometry width="106" height="40" as="geometry">
                        <mxRectangle width="106" height="40" as="alternateBounds"/>
                    </mxGeometry>
                </mxCell>
                <mxCell id="q9Qo7ROFAV8mgY_UIDex-17" value="0" style="shape=partialRectangle;html=1;whiteSpace=wrap;connectable=0;fillColor=none;top=0;left=0;bottom=0;right=0;overflow=hidden;align=center;spacingLeft=6;verticalAlign=middle;" parent="q9Qo7ROFAV8mgY_UIDex-14" vertex="1">
                    <mxGeometry x="106" width="64" height="40" as="geometry">
                        <mxRectangle width="64" height="40" as="alternateBounds"/>
                    </mxGeometry>
                </mxCell>
                <mxCell id="q9Qo7ROFAV8mgY_UIDex-41" value="Ступников Г.Е." style="shape=partialRectangle;html=1;whiteSpace=wrap;connectable=0;fillColor=none;top=0;left=0;bottom=0;right=0;overflow=hidden;align=left;spacingLeft=6;verticalAlign=top;" parent="q9Qo7ROFAV8mgY_UIDex-14" vertex="1">
                    <mxGeometry x="170" width="110" height="40" as="geometry">
                        <mxRectangle width="110" height="40" as="alternateBounds"/>
                    </mxGeometry>
                </mxCell>
                <mxCell id="jR_uYHIPBa_riNEjC0p1-4" value="+" style="shape=partialRectangle;html=1;whiteSpace=wrap;connectable=0;fillColor=none;top=0;left=0;bottom=0;right=0;overflow=hidden;align=center;spacingLeft=6;verticalAlign=middle;fontSize=20;" parent="q9Qo7ROFAV8mgY_UIDex-14" vertex="1">
                    <mxGeometry x="280" width="96" height="40" as="geometry">
                        <mxRectangle width="96" height="40" as="alternateBounds"/>
                    </mxGeometry>
                </mxCell>
                <mxCell id="SRa3RJ8Y8ubveqTin2Bf-9" value="10" style="shape=partialRectangle;html=1;whiteSpace=wrap;connectable=0;fillColor=none;top=0;left=0;bottom=0;right=0;overflow=hidden;align=center;spacingLeft=6;verticalAlign=middle;fontSize=20;" vertex="1" parent="q9Qo7ROFAV8mgY_UIDex-14">
                    <mxGeometry x="376" width="124" height="40" as="geometry">
                        <mxRectangle width="124" height="40" as="alternateBounds"/>
                    </mxGeometry>
                </mxCell>
                <mxCell id="q9Qo7ROFAV8mgY_UIDex-18" style="shape=tableRow;horizontal=0;startSize=0;swimlaneHead=0;swimlaneBody=0;top=0;left=0;bottom=0;right=0;collapsible=0;dropTarget=0;fillColor=none;points=[[0,0.5],[1,0.5]];portConstraint=eastwest;" parent="q9Qo7ROFAV8mgY_UIDex-1" vertex="1">
                    <mxGeometry y="226" width="500" height="70" as="geometry"/>
                </mxCell>
                <mxCell id="q9Qo7ROFAV8mgY_UIDex-19" value="Поддержка аппаратного обеспечения (АО) устройств" style="shape=partialRectangle;html=1;whiteSpace=wrap;connectable=0;fillColor=none;top=0;left=0;bottom=0;right=0;overflow=hidden;" parent="q9Qo7ROFAV8mgY_UIDex-18" vertex="1">
                    <mxGeometry width="106" height="70" as="geometry">
                        <mxRectangle width="106" height="70" as="alternateBounds"/>
                    </mxGeometry>
                </mxCell>
                <mxCell id="q9Qo7ROFAV8mgY_UIDex-21" value="1" style="shape=partialRectangle;html=1;whiteSpace=wrap;connectable=0;fillColor=none;top=0;left=0;bottom=0;right=0;overflow=hidden;align=center;spacingLeft=6;verticalAlign=middle;spacingRight=2;" parent="q9Qo7ROFAV8mgY_UIDex-18" vertex="1">
                    <mxGeometry x="106" width="64" height="70" as="geometry">
                        <mxRectangle width="64" height="70" as="alternateBounds"/>
                    </mxGeometry>
                </mxCell>
                <mxCell id="q9Qo7ROFAV8mgY_UIDex-42" value="Ступников Г.Е." style="shape=partialRectangle;html=1;whiteSpace=wrap;connectable=0;fillColor=none;top=0;left=0;bottom=0;right=0;overflow=hidden;align=left;spacingLeft=6;verticalAlign=top;spacingRight=2;" parent="q9Qo7ROFAV8mgY_UIDex-18" vertex="1">
                    <mxGeometry x="170" width="110" height="70" as="geometry">
                        <mxRectangle width="110" height="70" as="alternateBounds"/>
                    </mxGeometry>
                </mxCell>
                <mxCell id="jR_uYHIPBa_riNEjC0p1-5" value="+" style="shape=partialRectangle;html=1;whiteSpace=wrap;connectable=0;fillColor=none;top=0;left=0;bottom=0;right=0;overflow=hidden;align=center;spacingLeft=6;verticalAlign=middle;spacingRight=2;fontSize=20;" parent="q9Qo7ROFAV8mgY_UIDex-18" vertex="1">
                    <mxGeometry x="280" width="96" height="70" as="geometry">
                        <mxRectangle width="96" height="70" as="alternateBounds"/>
                    </mxGeometry>
                </mxCell>
                <mxCell id="SRa3RJ8Y8ubveqTin2Bf-10" value="8" style="shape=partialRectangle;html=1;whiteSpace=wrap;connectable=0;fillColor=none;top=0;left=0;bottom=0;right=0;overflow=hidden;align=center;spacingLeft=6;verticalAlign=middle;spacingRight=2;fontSize=20;" vertex="1" parent="q9Qo7ROFAV8mgY_UIDex-18">
                    <mxGeometry x="376" width="124" height="70" as="geometry">
                        <mxRectangle width="124" height="70" as="alternateBounds"/>
                    </mxGeometry>
                </mxCell>
                <mxCell id="q9Qo7ROFAV8mgY_UIDex-22" style="shape=tableRow;horizontal=0;startSize=0;swimlaneHead=0;swimlaneBody=0;top=0;left=0;bottom=0;right=0;collapsible=0;dropTarget=0;fillColor=none;points=[[0,0.5],[1,0.5]];portConstraint=eastwest;" parent="q9Qo7ROFAV8mgY_UIDex-1" vertex="1">
                    <mxGeometry y="296" width="500" height="72" as="geometry"/>
                </mxCell>
                <mxCell id="q9Qo7ROFAV8mgY_UIDex-23" value="Распределение вычислительных ресурсов" style="shape=partialRectangle;html=1;whiteSpace=wrap;connectable=0;fillColor=none;top=0;left=0;bottom=0;right=0;overflow=hidden;" parent="q9Qo7ROFAV8mgY_UIDex-22" vertex="1">
                    <mxGeometry width="106" height="72" as="geometry">
                        <mxRectangle width="106" height="72" as="alternateBounds"/>
                    </mxGeometry>
                </mxCell>
                <mxCell id="q9Qo7ROFAV8mgY_UIDex-25" value="6" style="shape=partialRectangle;html=1;whiteSpace=wrap;connectable=0;fillColor=none;top=0;left=0;bottom=0;right=0;overflow=visible;align=center;spacingLeft=6;verticalAlign=middle;" parent="q9Qo7ROFAV8mgY_UIDex-22" vertex="1">
                    <mxGeometry x="106" width="64" height="72" as="geometry">
                        <mxRectangle width="64" height="72" as="alternateBounds"/>
                    </mxGeometry>
                </mxCell>
                <mxCell id="q9Qo7ROFAV8mgY_UIDex-43" value="" style="shape=partialRectangle;html=1;whiteSpace=wrap;connectable=0;fillColor=none;top=0;left=0;bottom=0;right=0;overflow=visible;align=left;spacingLeft=6;verticalAlign=top;" parent="q9Qo7ROFAV8mgY_UIDex-22" vertex="1">
                    <mxGeometry x="170" width="110" height="72" as="geometry">
                        <mxRectangle width="110" height="72" as="alternateBounds"/>
                    </mxGeometry>
                </mxCell>
                <mxCell id="jR_uYHIPBa_riNEjC0p1-6" value="-" style="shape=partialRectangle;html=1;whiteSpace=wrap;connectable=0;fillColor=none;top=0;left=0;bottom=0;right=0;overflow=visible;align=center;spacingLeft=6;verticalAlign=middle;fontSize=20;" parent="q9Qo7ROFAV8mgY_UIDex-22" vertex="1">
                    <mxGeometry x="280" width="96" height="72" as="geometry">
                        <mxRectangle width="96" height="72" as="alternateBounds"/>
                    </mxGeometry>
                </mxCell>
                <mxCell id="SRa3RJ8Y8ubveqTin2Bf-11" style="shape=partialRectangle;html=1;whiteSpace=wrap;connectable=0;fillColor=none;top=0;left=0;bottom=0;right=0;overflow=visible;align=center;spacingLeft=6;verticalAlign=middle;fontSize=20;" vertex="1" parent="q9Qo7ROFAV8mgY_UIDex-22">
                    <mxGeometry x="376" width="124" height="72" as="geometry">
                        <mxRectangle width="124" height="72" as="alternateBounds"/>
                    </mxGeometry>
                </mxCell>
                <mxCell id="q9Qo7ROFAV8mgY_UIDex-26" style="shape=tableRow;horizontal=0;startSize=0;swimlaneHead=0;swimlaneBody=0;top=0;left=0;bottom=0;right=0;collapsible=0;dropTarget=0;fillColor=none;points=[[0,0.5],[1,0.5]];portConstraint=eastwest;" parent="q9Qo7ROFAV8mgY_UIDex-1" vertex="1">
                    <mxGeometry y="368" width="500" height="80" as="geometry"/>
                </mxCell>
                <mxCell id="q9Qo7ROFAV8mgY_UIDex-27" value="Управление пользовательской средой" style="shape=partialRectangle;html=1;whiteSpace=wrap;connectable=0;fillColor=none;top=0;left=0;bottom=0;right=0;overflow=hidden;" parent="q9Qo7ROFAV8mgY_UIDex-26" vertex="1">
                    <mxGeometry width="106" height="80" as="geometry">
                        <mxRectangle width="106" height="80" as="alternateBounds"/>
                    </mxGeometry>
                </mxCell>
                <mxCell id="q9Qo7ROFAV8mgY_UIDex-29" value="7" style="shape=partialRectangle;html=1;connectable=0;fillColor=none;top=0;left=0;bottom=0;right=0;overflow=hidden;align=center;spacingLeft=6;verticalAlign=middle;strokeColor=default;shadow=0;whiteSpace=wrap;" parent="q9Qo7ROFAV8mgY_UIDex-26" vertex="1">
                    <mxGeometry x="106" width="64" height="80" as="geometry">
                        <mxRectangle width="64" height="80" as="alternateBounds"/>
                    </mxGeometry>
                </mxCell>
                <mxCell id="q9Qo7ROFAV8mgY_UIDex-44" value="Жуйков Ю.В&lt;br&gt;" style="shape=partialRectangle;html=1;connectable=0;fillColor=none;top=0;left=0;bottom=0;right=0;overflow=hidden;align=left;spacingLeft=6;verticalAlign=top;strokeColor=default;shadow=0;whiteSpace=wrap;" parent="q9Qo7ROFAV8mgY_UIDex-26" vertex="1">
                    <mxGeometry x="170" width="110" height="80" as="geometry">
                        <mxRectangle width="110" height="80" as="alternateBounds"/>
                    </mxGeometry>
                </mxCell>
                <mxCell id="jR_uYHIPBa_riNEjC0p1-7" value="+" style="shape=partialRectangle;html=1;connectable=0;fillColor=none;top=0;left=0;bottom=0;right=0;overflow=hidden;align=center;spacingLeft=6;verticalAlign=middle;strokeColor=default;shadow=0;whiteSpace=wrap;fontSize=20;" parent="q9Qo7ROFAV8mgY_UIDex-26" vertex="1">
                    <mxGeometry x="280" width="96" height="80" as="geometry">
                        <mxRectangle width="96" height="80" as="alternateBounds"/>
                    </mxGeometry>
                </mxCell>
                <mxCell id="SRa3RJ8Y8ubveqTin2Bf-12" value="4" style="shape=partialRectangle;html=1;connectable=0;fillColor=none;top=0;left=0;bottom=0;right=0;overflow=hidden;align=center;spacingLeft=6;verticalAlign=middle;strokeColor=default;shadow=0;whiteSpace=wrap;fontSize=20;" vertex="1" parent="q9Qo7ROFAV8mgY_UIDex-26">
                    <mxGeometry x="376" width="124" height="80" as="geometry">
                        <mxRectangle width="124" height="80" as="alternateBounds"/>
                    </mxGeometry>
                </mxCell>
                <mxCell id="q9Qo7ROFAV8mgY_UIDex-30" style="shape=tableRow;horizontal=0;startSize=0;swimlaneHead=0;swimlaneBody=0;top=0;left=0;bottom=0;right=0;collapsible=0;dropTarget=0;fillColor=none;points=[[0,0.5],[1,0.5]];portConstraint=eastwest;" parent="q9Qo7ROFAV8mgY_UIDex-1" vertex="1">
                    <mxGeometry y="448" width="500" height="60" as="geometry"/>
                </mxCell>
                <mxCell id="q9Qo7ROFAV8mgY_UIDex-31" value="Регистрация объектов" style="shape=partialRectangle;html=1;whiteSpace=wrap;connectable=0;fillColor=none;top=0;left=0;bottom=0;right=0;overflow=hidden;" parent="q9Qo7ROFAV8mgY_UIDex-30" vertex="1">
                    <mxGeometry width="106" height="60" as="geometry">
                        <mxRectangle width="106" height="60" as="alternateBounds"/>
                    </mxGeometry>
                </mxCell>
                <mxCell id="q9Qo7ROFAV8mgY_UIDex-33" value="3" style="shape=partialRectangle;html=1;whiteSpace=wrap;connectable=0;fillColor=none;top=0;left=0;bottom=0;right=0;overflow=hidden;align=center;spacingLeft=6;verticalAlign=middle;strokeColor=default;shadow=0;" parent="q9Qo7ROFAV8mgY_UIDex-30" vertex="1">
                    <mxGeometry x="106" width="64" height="60" as="geometry">
                        <mxRectangle width="64" height="60" as="alternateBounds"/>
                    </mxGeometry>
                </mxCell>
                <mxCell id="q9Qo7ROFAV8mgY_UIDex-45" value="Жуйков Ю.В." style="shape=partialRectangle;html=1;whiteSpace=wrap;connectable=0;fillColor=none;top=0;left=0;bottom=0;right=0;overflow=hidden;align=left;spacingLeft=6;verticalAlign=top;strokeColor=default;shadow=0;" parent="q9Qo7ROFAV8mgY_UIDex-30" vertex="1">
                    <mxGeometry x="170" width="110" height="60" as="geometry">
                        <mxRectangle width="110" height="60" as="alternateBounds"/>
                    </mxGeometry>
                </mxCell>
                <mxCell id="jR_uYHIPBa_riNEjC0p1-8" value="+" style="shape=partialRectangle;html=1;whiteSpace=wrap;connectable=0;fillColor=none;top=0;left=0;bottom=0;right=0;overflow=hidden;align=center;spacingLeft=6;verticalAlign=middle;strokeColor=default;shadow=0;fontSize=20;" parent="q9Qo7ROFAV8mgY_UIDex-30" vertex="1">
                    <mxGeometry x="280" width="96" height="60" as="geometry">
                        <mxRectangle width="96" height="60" as="alternateBounds"/>
                    </mxGeometry>
                </mxCell>
                <mxCell id="SRa3RJ8Y8ubveqTin2Bf-13" value="8" style="shape=partialRectangle;html=1;whiteSpace=wrap;connectable=0;fillColor=none;top=0;left=0;bottom=0;right=0;overflow=hidden;align=center;spacingLeft=6;verticalAlign=middle;strokeColor=default;shadow=0;fontSize=20;" vertex="1" parent="q9Qo7ROFAV8mgY_UIDex-30">
                    <mxGeometry x="376" width="124" height="60" as="geometry">
                        <mxRectangle width="124" height="60" as="alternateBounds"/>
                    </mxGeometry>
                </mxCell>
                <mxCell id="pLscYp_o2i63lIO435wS-1" style="shape=tableRow;horizontal=0;startSize=0;swimlaneHead=0;swimlaneBody=0;top=0;left=0;bottom=0;right=0;collapsible=0;dropTarget=0;fillColor=none;points=[[0,0.5],[1,0.5]];portConstraint=eastwest;" parent="q9Qo7ROFAV8mgY_UIDex-1" vertex="1">
                    <mxGeometry y="508" width="500" height="60" as="geometry"/>
                </mxCell>
                <mxCell id="pLscYp_o2i63lIO435wS-2" value="Центр управления экосистемой" style="shape=partialRectangle;html=1;whiteSpace=wrap;connectable=0;fillColor=none;top=0;left=0;bottom=0;right=0;overflow=hidden;" parent="pLscYp_o2i63lIO435wS-1" vertex="1">
                    <mxGeometry width="106" height="60" as="geometry">
                        <mxRectangle width="106" height="60" as="alternateBounds"/>
                    </mxGeometry>
                </mxCell>
                <mxCell id="pLscYp_o2i63lIO435wS-3" value="5" style="shape=partialRectangle;html=1;whiteSpace=wrap;connectable=0;fillColor=none;top=0;left=0;bottom=0;right=0;overflow=hidden;align=center;spacingLeft=6;verticalAlign=middle;strokeColor=default;shadow=0;" parent="pLscYp_o2i63lIO435wS-1" vertex="1">
                    <mxGeometry x="106" width="64" height="60" as="geometry">
                        <mxRectangle width="64" height="60" as="alternateBounds"/>
                    </mxGeometry>
                </mxCell>
                <mxCell id="pLscYp_o2i63lIO435wS-4" value="Жуйков Ю.В." style="shape=partialRectangle;html=1;whiteSpace=wrap;connectable=0;fillColor=none;top=0;left=0;bottom=0;right=0;overflow=hidden;align=left;spacingLeft=6;verticalAlign=top;strokeColor=default;shadow=0;" parent="pLscYp_o2i63lIO435wS-1" vertex="1">
                    <mxGeometry x="170" width="110" height="60" as="geometry">
                        <mxRectangle width="110" height="60" as="alternateBounds"/>
                    </mxGeometry>
                </mxCell>
                <mxCell id="jR_uYHIPBa_riNEjC0p1-9" value="+" style="shape=partialRectangle;html=1;whiteSpace=wrap;connectable=0;fillColor=none;top=0;left=0;bottom=0;right=0;overflow=hidden;align=center;spacingLeft=6;verticalAlign=middle;strokeColor=default;shadow=0;fontSize=20;" parent="pLscYp_o2i63lIO435wS-1" vertex="1">
                    <mxGeometry x="280" width="96" height="60" as="geometry">
                        <mxRectangle width="96" height="60" as="alternateBounds"/>
                    </mxGeometry>
                </mxCell>
                <mxCell id="SRa3RJ8Y8ubveqTin2Bf-14" value="7" style="shape=partialRectangle;html=1;whiteSpace=wrap;connectable=0;fillColor=none;top=0;left=0;bottom=0;right=0;overflow=hidden;align=center;spacingLeft=6;verticalAlign=middle;strokeColor=default;shadow=0;fontSize=20;" vertex="1" parent="pLscYp_o2i63lIO435wS-1">
                    <mxGeometry x="376" width="124" height="60" as="geometry">
                        <mxRectangle width="124" height="60" as="alternateBounds"/>
                    </mxGeometry>
                </mxCell>
                <mxCell id="uNiOzIv36ntX88H8HqCs-1" style="shape=tableRow;horizontal=0;startSize=0;swimlaneHead=0;swimlaneBody=0;top=0;left=0;bottom=0;right=0;collapsible=0;dropTarget=0;fillColor=none;points=[[0,0.5],[1,0.5]];portConstraint=eastwest;" parent="q9Qo7ROFAV8mgY_UIDex-1" vertex="1">
                    <mxGeometry y="568" width="500" height="60" as="geometry"/>
                </mxCell>
                <mxCell id="uNiOzIv36ntX88H8HqCs-2" value="Центр миграции сервера и подключений" style="shape=partialRectangle;html=1;whiteSpace=wrap;connectable=0;fillColor=none;top=0;left=0;bottom=0;right=0;overflow=hidden;" parent="uNiOzIv36ntX88H8HqCs-1" vertex="1">
                    <mxGeometry width="106" height="60" as="geometry">
                        <mxRectangle width="106" height="60" as="alternateBounds"/>
                    </mxGeometry>
                </mxCell>
                <mxCell id="uNiOzIv36ntX88H8HqCs-3" value="9" style="shape=partialRectangle;html=1;whiteSpace=wrap;connectable=0;fillColor=none;top=0;left=0;bottom=0;right=0;overflow=hidden;align=center;spacingLeft=6;verticalAlign=middle;strokeColor=default;shadow=0;" parent="uNiOzIv36ntX88H8HqCs-1" vertex="1">
                    <mxGeometry x="106" width="64" height="60" as="geometry">
                        <mxRectangle width="64" height="60" as="alternateBounds"/>
                    </mxGeometry>
                </mxCell>
                <mxCell id="uNiOzIv36ntX88H8HqCs-4" value="" style="shape=partialRectangle;html=1;whiteSpace=wrap;connectable=0;fillColor=none;top=0;left=0;bottom=0;right=0;overflow=hidden;align=left;spacingLeft=6;verticalAlign=top;strokeColor=default;shadow=0;" parent="uNiOzIv36ntX88H8HqCs-1" vertex="1">
                    <mxGeometry x="170" width="110" height="60" as="geometry">
                        <mxRectangle width="110" height="60" as="alternateBounds"/>
                    </mxGeometry>
                </mxCell>
                <mxCell id="jR_uYHIPBa_riNEjC0p1-10" value="-" style="shape=partialRectangle;html=1;whiteSpace=wrap;connectable=0;fillColor=none;top=0;left=0;bottom=0;right=0;overflow=hidden;align=center;spacingLeft=6;verticalAlign=middle;strokeColor=default;shadow=0;fontSize=20;" parent="uNiOzIv36ntX88H8HqCs-1" vertex="1">
                    <mxGeometry x="280" width="96" height="60" as="geometry">
                        <mxRectangle width="96" height="60" as="alternateBounds"/>
                    </mxGeometry>
                </mxCell>
                <mxCell id="SRa3RJ8Y8ubveqTin2Bf-15" style="shape=partialRectangle;html=1;whiteSpace=wrap;connectable=0;fillColor=none;top=0;left=0;bottom=0;right=0;overflow=hidden;align=center;spacingLeft=6;verticalAlign=middle;strokeColor=default;shadow=0;fontSize=20;" vertex="1" parent="uNiOzIv36ntX88H8HqCs-1">
                    <mxGeometry x="376" width="124" height="60" as="geometry">
                        <mxRectangle width="124" height="60" as="alternateBounds"/>
                    </mxGeometry>
                </mxCell>
                <mxCell id="HSgcWBG1IJJJfZ2CSVOq-1" style="shape=tableRow;horizontal=0;startSize=0;swimlaneHead=0;swimlaneBody=0;top=0;left=0;bottom=0;right=0;collapsible=0;dropTarget=0;fillColor=none;points=[[0,0.5],[1,0.5]];portConstraint=eastwest;" parent="q9Qo7ROFAV8mgY_UIDex-1" vertex="1">
                    <mxGeometry y="628" width="500" height="60" as="geometry"/>
                </mxCell>
                <mxCell id="HSgcWBG1IJJJfZ2CSVOq-2" value="&lt;span&gt;Менеджер управления компонентами&lt;/span&gt;" style="shape=partialRectangle;html=1;whiteSpace=wrap;connectable=0;fillColor=none;top=0;left=0;bottom=0;right=0;overflow=hidden;" parent="HSgcWBG1IJJJfZ2CSVOq-1" vertex="1">
                    <mxGeometry width="106" height="60" as="geometry">
                        <mxRectangle width="106" height="60" as="alternateBounds"/>
                    </mxGeometry>
                </mxCell>
                <mxCell id="HSgcWBG1IJJJfZ2CSVOq-3" value="2" style="shape=partialRectangle;html=1;whiteSpace=wrap;connectable=0;fillColor=none;top=0;left=0;bottom=0;right=0;overflow=hidden;align=center;spacingLeft=6;verticalAlign=middle;strokeColor=default;shadow=0;" parent="HSgcWBG1IJJJfZ2CSVOq-1" vertex="1">
                    <mxGeometry x="106" width="64" height="60" as="geometry">
                        <mxRectangle width="64" height="60" as="alternateBounds"/>
                    </mxGeometry>
                </mxCell>
                <mxCell id="HSgcWBG1IJJJfZ2CSVOq-4" value="Ступников Г.Е." style="shape=partialRectangle;html=1;whiteSpace=wrap;connectable=0;fillColor=none;top=0;left=0;bottom=0;right=0;overflow=hidden;align=left;spacingLeft=6;verticalAlign=top;strokeColor=default;shadow=0;" parent="HSgcWBG1IJJJfZ2CSVOq-1" vertex="1">
                    <mxGeometry x="170" width="110" height="60" as="geometry">
                        <mxRectangle width="110" height="60" as="alternateBounds"/>
                    </mxGeometry>
                </mxCell>
                <mxCell id="jR_uYHIPBa_riNEjC0p1-11" value="+" style="shape=partialRectangle;html=1;whiteSpace=wrap;connectable=0;fillColor=none;top=0;left=0;bottom=0;right=0;overflow=hidden;align=center;spacingLeft=6;verticalAlign=middle;strokeColor=default;shadow=0;fontSize=20;" parent="HSgcWBG1IJJJfZ2CSVOq-1" vertex="1">
                    <mxGeometry x="280" width="96" height="60" as="geometry">
                        <mxRectangle width="96" height="60" as="alternateBounds"/>
                    </mxGeometry>
                </mxCell>
                <mxCell id="SRa3RJ8Y8ubveqTin2Bf-16" value="6" style="shape=partialRectangle;html=1;whiteSpace=wrap;connectable=0;fillColor=none;top=0;left=0;bottom=0;right=0;overflow=hidden;align=center;spacingLeft=6;verticalAlign=middle;strokeColor=default;shadow=0;fontSize=20;" vertex="1" parent="HSgcWBG1IJJJfZ2CSVOq-1">
                    <mxGeometry x="376" width="124" height="60" as="geometry">
                        <mxRectangle width="124" height="60" as="alternateBounds"/>
                    </mxGeometry>
                </mxCell>
                <mxCell id="OrBx67icscCi-cxxw7yl-1" style="shape=tableRow;horizontal=0;startSize=0;swimlaneHead=0;swimlaneBody=0;top=0;left=0;bottom=0;right=0;collapsible=0;dropTarget=0;fillColor=none;points=[[0,0.5],[1,0.5]];portConstraint=eastwest;" parent="q9Qo7ROFAV8mgY_UIDex-1" vertex="1">
                    <mxGeometry y="688" width="500" height="50" as="geometry"/>
                </mxCell>
                <mxCell id="OrBx67icscCi-cxxw7yl-2" value="Маршрутизатор" style="shape=partialRectangle;html=1;whiteSpace=wrap;connectable=0;fillColor=none;top=0;left=0;bottom=0;right=0;overflow=hidden;" parent="OrBx67icscCi-cxxw7yl-1" vertex="1">
                    <mxGeometry width="106" height="50" as="geometry">
                        <mxRectangle width="106" height="50" as="alternateBounds"/>
                    </mxGeometry>
                </mxCell>
                <mxCell id="OrBx67icscCi-cxxw7yl-3" value="10" style="shape=partialRectangle;html=1;whiteSpace=wrap;connectable=0;fillColor=none;top=0;left=0;bottom=0;right=0;overflow=hidden;align=center;spacingLeft=6;verticalAlign=middle;strokeColor=default;shadow=0;" parent="OrBx67icscCi-cxxw7yl-1" vertex="1">
                    <mxGeometry x="106" width="64" height="50" as="geometry">
                        <mxRectangle width="64" height="50" as="alternateBounds"/>
                    </mxGeometry>
                </mxCell>
                <mxCell id="OrBx67icscCi-cxxw7yl-4" value="" style="shape=partialRectangle;html=1;whiteSpace=wrap;connectable=0;fillColor=none;top=0;left=0;bottom=0;right=0;overflow=hidden;align=left;spacingLeft=6;verticalAlign=top;strokeColor=default;shadow=0;" parent="OrBx67icscCi-cxxw7yl-1" vertex="1">
                    <mxGeometry x="170" width="110" height="50" as="geometry">
                        <mxRectangle width="110" height="50" as="alternateBounds"/>
                    </mxGeometry>
                </mxCell>
                <mxCell id="jR_uYHIPBa_riNEjC0p1-12" value="-" style="shape=partialRectangle;html=1;whiteSpace=wrap;connectable=0;fillColor=none;top=0;left=0;bottom=0;right=0;overflow=hidden;align=center;spacingLeft=6;verticalAlign=middle;strokeColor=default;shadow=0;fontSize=20;" parent="OrBx67icscCi-cxxw7yl-1" vertex="1">
                    <mxGeometry x="280" width="96" height="50" as="geometry">
                        <mxRectangle width="96" height="50" as="alternateBounds"/>
                    </mxGeometry>
                </mxCell>
                <mxCell id="SRa3RJ8Y8ubveqTin2Bf-17" style="shape=partialRectangle;html=1;whiteSpace=wrap;connectable=0;fillColor=none;top=0;left=0;bottom=0;right=0;overflow=hidden;align=center;spacingLeft=6;verticalAlign=middle;strokeColor=default;shadow=0;fontSize=20;" vertex="1" parent="OrBx67icscCi-cxxw7yl-1">
                    <mxGeometry x="376" width="124" height="50" as="geometry">
                        <mxRectangle width="124" height="50" as="alternateBounds"/>
                    </mxGeometry>
                </mxCell>
                <mxCell id="q9Qo7ROFAV8mgY_UIDex-34" style="shape=tableRow;horizontal=0;startSize=0;swimlaneHead=0;swimlaneBody=0;top=0;left=0;bottom=0;right=0;collapsible=0;dropTarget=0;fillColor=none;points=[[0,0.5],[1,0.5]];portConstraint=eastwest;verticalAlign=top;" parent="q9Qo7ROFAV8mgY_UIDex-1" vertex="1">
                    <mxGeometry y="738" width="500" height="50" as="geometry"/>
                </mxCell>
                <mxCell id="q9Qo7ROFAV8mgY_UIDex-35" value="* Если объект не планируется реализовать в прототипе V.1, ответственный не назначен." style="shape=partialRectangle;html=1;whiteSpace=wrap;connectable=0;top=0;left=0;bottom=0;right=0;overflow=hidden;verticalAlign=top;shadow=0;sketch=0;fillColor=none;align=left;spacingLeft=10;rowspan=1;colspan=4;" parent="q9Qo7ROFAV8mgY_UIDex-34" vertex="1">
                    <mxGeometry width="376" height="50" as="geometry">
                        <mxRectangle width="106" height="50" as="alternateBounds"/>
                    </mxGeometry>
                </mxCell>
                <mxCell id="q9Qo7ROFAV8mgY_UIDex-37" style="shape=partialRectangle;html=1;whiteSpace=wrap;connectable=0;fillColor=none;top=0;left=0;bottom=0;right=0;overflow=hidden;align=left;spacingLeft=6;verticalAlign=top;strokeColor=default;shadow=0;" parent="q9Qo7ROFAV8mgY_UIDex-34" vertex="1" visible="0">
                    <mxGeometry x="106" width="64" height="50" as="geometry">
                        <mxRectangle width="64" height="50" as="alternateBounds"/>
                    </mxGeometry>
                </mxCell>
                <mxCell id="q9Qo7ROFAV8mgY_UIDex-46" style="shape=partialRectangle;html=1;whiteSpace=wrap;connectable=0;fillColor=none;top=0;left=0;bottom=0;right=0;overflow=hidden;align=left;spacingLeft=6;verticalAlign=top;strokeColor=default;shadow=0;" parent="q9Qo7ROFAV8mgY_UIDex-34" vertex="1" visible="0">
                    <mxGeometry x="170" width="110" height="50" as="geometry">
                        <mxRectangle width="110" height="50" as="alternateBounds"/>
                    </mxGeometry>
                </mxCell>
                <mxCell id="jR_uYHIPBa_riNEjC0p1-13" style="shape=partialRectangle;html=1;whiteSpace=wrap;connectable=0;fillColor=none;top=0;left=0;bottom=0;right=0;overflow=hidden;align=left;spacingLeft=6;verticalAlign=top;strokeColor=default;shadow=0;" parent="q9Qo7ROFAV8mgY_UIDex-34" vertex="1" visible="0">
                    <mxGeometry x="280" width="96" height="50" as="geometry">
                        <mxRectangle width="96" height="50" as="alternateBounds"/>
                    </mxGeometry>
                </mxCell>
                <mxCell id="SRa3RJ8Y8ubveqTin2Bf-18" style="shape=partialRectangle;html=1;whiteSpace=wrap;connectable=0;fillColor=none;top=0;left=0;bottom=0;right=0;overflow=hidden;align=left;spacingLeft=6;verticalAlign=top;strokeColor=default;shadow=0;" vertex="1" parent="q9Qo7ROFAV8mgY_UIDex-34">
                    <mxGeometry x="376" width="124" height="50" as="geometry">
                        <mxRectangle width="124" height="50" as="alternateBounds"/>
                    </mxGeometry>
                </mxCell>
                <mxCell id="y1ZbAzCk8FkFt_JwcBy9-1" value="Описание разделения проекта на 2 части (для прототипа V.1)" style="shape=table;startSize=30;container=1;collapsible=0;childLayout=tableLayout;fontStyle=1;align=center;verticalAlign=top;strokeColor=default;swimlaneLine=1;shadow=0;fillColor=default;" parent="1" vertex="1">
                    <mxGeometry x="41" y="860" width="760" height="280" as="geometry"/>
                </mxCell>
                <mxCell id="y1ZbAzCk8FkFt_JwcBy9-2" value="" style="shape=tableRow;horizontal=0;startSize=0;swimlaneHead=0;swimlaneBody=0;top=0;left=0;bottom=0;right=0;collapsible=0;dropTarget=0;fillColor=none;points=[[0,0.5],[1,0.5]];portConstraint=eastwest;" parent="y1ZbAzCk8FkFt_JwcBy9-1" vertex="1">
                    <mxGeometry y="30" width="760" height="56" as="geometry"/>
                </mxCell>
                <mxCell id="y1ZbAzCk8FkFt_JwcBy9-3" value="Варианты названия подпроекта" style="shape=partialRectangle;html=1;whiteSpace=wrap;connectable=0;fillColor=none;top=0;left=0;bottom=0;right=0;overflow=hidden;" parent="y1ZbAzCk8FkFt_JwcBy9-2" vertex="1">
                    <mxGeometry width="280" height="56" as="geometry">
                        <mxRectangle width="280" height="56" as="alternateBounds"/>
                    </mxGeometry>
                </mxCell>
                <mxCell id="y1ZbAzCk8FkFt_JwcBy9-4" value="Отвественный" style="shape=partialRectangle;html=1;whiteSpace=wrap;connectable=0;fillColor=none;top=0;left=0;bottom=0;right=0;overflow=hidden;" parent="y1ZbAzCk8FkFt_JwcBy9-2" vertex="1">
                    <mxGeometry x="280" width="109" height="56" as="geometry">
                        <mxRectangle width="109" height="56" as="alternateBounds"/>
                    </mxGeometry>
                </mxCell>
                <mxCell id="y1ZbAzCk8FkFt_JwcBy9-5" value="Перечень реализуемых объектов 1 ур." style="shape=partialRectangle;html=1;whiteSpace=wrap;connectable=0;fillColor=none;top=0;left=0;bottom=0;right=0;overflow=hidden;" parent="y1ZbAzCk8FkFt_JwcBy9-2" vertex="1">
                    <mxGeometry x="389" width="371" height="56" as="geometry">
                        <mxRectangle width="371" height="56" as="alternateBounds"/>
                    </mxGeometry>
                </mxCell>
                <mxCell id="y1ZbAzCk8FkFt_JwcBy9-7" value="" style="shape=tableRow;horizontal=0;startSize=0;swimlaneHead=0;swimlaneBody=0;top=0;left=0;bottom=0;right=0;collapsible=0;dropTarget=0;fillColor=none;points=[[0,0.5],[1,0.5]];portConstraint=eastwest;" parent="y1ZbAzCk8FkFt_JwcBy9-1" vertex="1">
                    <mxGeometry y="86" width="760" height="95" as="geometry"/>
                </mxCell>
                <mxCell id="y1ZbAzCk8FkFt_JwcBy9-8" value="&lt;ul&gt;&lt;li&gt;Разработка БД и сервисов взаимодействия с пользователями экосистемы устройств&lt;/li&gt;&lt;/ul&gt;" style="shape=partialRectangle;html=1;whiteSpace=wrap;connectable=0;fillColor=none;top=0;left=0;bottom=0;right=0;overflow=hidden;" parent="y1ZbAzCk8FkFt_JwcBy9-7" vertex="1">
                    <mxGeometry width="280" height="95" as="geometry">
                        <mxRectangle width="280" height="95" as="alternateBounds"/>
                    </mxGeometry>
                </mxCell>
                <mxCell id="y1ZbAzCk8FkFt_JwcBy9-9" value="&lt;span style=&quot;text-align: left;&quot;&gt;Жуйков Ю.В.&lt;/span&gt;" style="shape=partialRectangle;html=1;whiteSpace=wrap;connectable=0;fillColor=none;top=0;left=0;bottom=0;right=0;overflow=hidden;align=center;spacingLeft=6;verticalAlign=middle;spacingTop=0;" parent="y1ZbAzCk8FkFt_JwcBy9-7" vertex="1">
                    <mxGeometry x="280" width="109" height="95" as="geometry">
                        <mxRectangle width="109" height="95" as="alternateBounds"/>
                    </mxGeometry>
                </mxCell>
                <mxCell id="y1ZbAzCk8FkFt_JwcBy9-10" value="&lt;span style=&quot;text-align: center;&quot;&gt;Статистика,&amp;nbsp;&lt;/span&gt;&lt;span style=&quot;text-align: center;&quot;&gt;Регистрация объектов,&amp;nbsp;&lt;/span&gt;&lt;span style=&quot;text-align: center;&quot;&gt;Центр управления экосистемой&lt;/span&gt;" style="shape=partialRectangle;html=1;whiteSpace=wrap;connectable=0;fillColor=none;top=0;left=0;bottom=0;right=0;overflow=hidden;align=left;spacingLeft=6;verticalAlign=top;spacingTop=0;" parent="y1ZbAzCk8FkFt_JwcBy9-7" vertex="1">
                    <mxGeometry x="389" width="371" height="95" as="geometry">
                        <mxRectangle width="371" height="95" as="alternateBounds"/>
                    </mxGeometry>
                </mxCell>
                <mxCell id="y1ZbAzCk8FkFt_JwcBy9-12" value="" style="shape=tableRow;horizontal=0;startSize=0;swimlaneHead=0;swimlaneBody=0;top=0;left=0;bottom=0;right=0;collapsible=0;dropTarget=0;fillColor=none;points=[[0,0.5],[1,0.5]];portConstraint=eastwest;verticalAlign=middle;" parent="y1ZbAzCk8FkFt_JwcBy9-1" vertex="1">
                    <mxGeometry y="181" width="760" height="99" as="geometry"/>
                </mxCell>
                <mxCell id="y1ZbAzCk8FkFt_JwcBy9-13" value="&lt;ul&gt;&lt;li&gt;Разработка БД и сервисов обеспечения целостности и оптимизации экосистемы устройств&lt;/li&gt;&lt;/ul&gt;" style="shape=partialRectangle;html=1;whiteSpace=wrap;connectable=0;fillColor=none;top=0;left=0;bottom=0;right=0;overflow=hidden;" parent="y1ZbAzCk8FkFt_JwcBy9-12" vertex="1">
                    <mxGeometry width="280" height="99" as="geometry">
                        <mxRectangle width="280" height="99" as="alternateBounds"/>
                    </mxGeometry>
                </mxCell>
                <mxCell id="y1ZbAzCk8FkFt_JwcBy9-14" value="&lt;span style=&quot;text-align: left;&quot;&gt;Ступников Г.Е.&lt;/span&gt;" style="shape=partialRectangle;html=1;whiteSpace=wrap;connectable=0;fillColor=none;top=0;left=0;bottom=0;right=0;overflow=hidden;align=center;spacingLeft=6;verticalAlign=middle;" parent="y1ZbAzCk8FkFt_JwcBy9-12" vertex="1">
                    <mxGeometry x="280" width="109" height="99" as="geometry">
                        <mxRectangle width="109" height="99" as="alternateBounds"/>
                    </mxGeometry>
                </mxCell>
                <mxCell id="y1ZbAzCk8FkFt_JwcBy9-15" value="&lt;span style=&quot;text-align: center;&quot;&gt;Поддержка аппаратного обеспечения (АО) устройств,&amp;nbsp;&lt;/span&gt;&lt;span style=&quot;text-align: center;&quot;&gt;Хранение данных,&amp;nbsp;&lt;/span&gt;&lt;span style=&quot;text-align: center;&quot;&gt;Менеджер управления компонентами&lt;/span&gt;" style="shape=partialRectangle;html=1;whiteSpace=wrap;connectable=0;fillColor=none;top=0;left=0;bottom=0;right=0;overflow=hidden;align=left;spacingLeft=6;verticalAlign=top;" parent="y1ZbAzCk8FkFt_JwcBy9-12" vertex="1">
                    <mxGeometry x="389" width="371" height="99" as="geometry">
                        <mxRectangle width="371" height="99" as="alternateBounds"/>
                    </mxGeometry>
                </mxCell>
                <mxCell id="ZDl8SRK0vj89N_jT-rAv-1" value="&lt;h1&gt;Комментарии:&lt;/h1&gt;&lt;div&gt;&lt;ol&gt;&lt;li&gt;Поддержка новых компонентов в ЦУЭ не труебуется: каждый новый компонент хранит в себе перечень доступной конфигурации в стандартизированном виде, поэтому ЦУЭ ее считывает для каждого компонента и выводит пользователю.&lt;/li&gt;&lt;li&gt;Прототип V.1 - прототип экосистемы, реализация которого предполагается в ходе выполнения курсовой работы по БД&lt;/li&gt;&lt;/ol&gt;&lt;/div&gt;" style="text;html=1;strokeColor=none;fillColor=none;spacing=5;spacingTop=-20;whiteSpace=wrap;overflow=hidden;rounded=0;" parent="1" vertex="1">
                    <mxGeometry x="40" y="40" width="240" height="320" as="geometry"/>
                </mxCell>
            </root>
        </mxGraphModel>
    </diagram>
</mxfile>
